<?xml version="1.0" encoding="UTF-8"?>
<svg version="1.1" xmlns="http://www.w3.org/2000/svg" width="1024" height="1024">
<path d="M0 0 C337.92 0 675.84 0 1024 0 C1024 337.92 1024 675.84 1024 1024 C686.08 1024 348.16 1024 0 1024 C0 686.08 0 348.16 0 0 Z " fill="#FEFEFE" transform="translate(0,0)"/>
<path d="M0 0 C2.97 0.99 5.94 1.98 9 3 C9 3.66 9 4.32 9 5 C10.0003125 5.11085938 11.000625 5.22171875 12.03125 5.3359375 C16.04718792 5.914539 19.72815011 7.16180265 23.5 8.625 C24.18779541 8.88716309 24.87559082 9.14932617 25.58422852 9.41943359 C31.75035274 11.81435934 37.72946847 14.55786083 43.6875 17.42578125 C46.25255458 18.64478714 48.80692276 19.75130123 51.4375 20.8125 C56.6486364 23.08681 61.35526171 26.25019868 66.13647461 29.30053711 C69.53473285 31.46842585 72.90526628 33.54306839 76.5 35.375 C91.81430556 43.68598936 107.30471262 56.66660187 119.28515625 69.25 C121.08244433 71.08413453 122.97375117 72.72131677 124.9375 74.375 C129.74267739 78.52704648 133.83902614 83.21455139 138 88 C138.93829158 89.05253865 139.87711653 90.104602 140.81640625 91.15625 C164.891276 118.3644224 184.36431651 152.33582722 193.9375 187.4375 C194.79382165 190.30869613 195.77781589 192.97075155 196.875 195.75 C204.84256893 217.30405773 207.39286887 242.43924881 207.26074219 265.30224609 C207.25000022 267.49995475 207.26073694 269.69684657 207.2734375 271.89453125 C207.29751998 297.40496004 207.29751998 297.40496004 204 304 C203.82803799 305.35485219 203.70342732 306.71592109 203.60546875 308.078125 C202.85317248 317.42157162 201.79378049 325.99213212 198.94140625 334.94921875 C198.06843295 337.7782318 197.4569139 340.52616324 196.9375 343.4375 C196.2981082 346.87353593 195.33680661 349.80035362 193.83984375 352.98046875 C192.7341303 355.63932389 191.98592195 358.35868329 191.1875 361.125 C189.41120733 367.06191666 187.04417607 372.5055484 184.3671875 378.0859375 C183.29916903 380.36234259 182.37970056 382.56660948 181.5625 384.9375 C172.05559384 410.98749711 154.4018126 435.49774756 136 456 C135.47325684 456.58845703 134.94651367 457.17691406 134.40380859 457.78320312 C121.73659884 471.84391684 108.19538826 484.70163126 93 496 C92.41863281 496.43296387 91.83726562 496.86592773 91.23828125 497.31201172 C83.10265387 503.33066983 74.76029917 508.92153382 66 514 C64.84975342 514.66829834 64.84975342 514.66829834 63.67626953 515.35009766 C45.74294397 525.68968823 45.74294397 525.68968823 36.41015625 528.21875 C33.6448518 529.11512097 31.47010612 530.47993469 29 532 C22.29174845 534.78115611 15.06284835 536.3959524 8 538 C7.26620117 538.17281494 6.53240234 538.34562988 5.77636719 538.52368164 C-0.48746787 539.90679078 -6.4684664 540.35184872 -12.875 540.3125 C-14.32289917 540.30404053 -14.32289917 540.30404053 -15.80004883 540.29541016 C-32.11158634 540.01794232 -45.08635661 534.18580023 -57 523 C-61.53468354 518.06315798 -65.78356747 513.40687527 -68 507 C-68.66 507 -69.32 507 -70 507 C-70.67354499 505.56570999 -71.33859701 504.12742943 -72 502.6875 C-72.37125 501.88699219 -72.7425 501.08648438 -73.125 500.26171875 C-74 498 -74 498 -74 495 C-74.66 495 -75.32 495 -76 495 C-78.31984733 487.71387757 -80.4980674 480.49792917 -82 473 C-82.2475 471.85660156 -82.495 470.71320313 -82.75 469.53515625 C-84.40473384 461.69903685 -85.68871887 454.01784717 -86 446 C-86.02723145 445.33581055 -86.05446289 444.67162109 -86.08251953 443.98730469 C-86.5465471 430.94200142 -85.71750357 417.79768473 -83 405 C-82.67 404.67 -82.34 404.34 -82 404 C-81.6957344 402.59013562 -81.43279092 401.17131189 -81.1875 399.75 C-76.76685956 376.93169422 -66.7078068 354.45730361 -48 340 C-41.95128417 336.07428276 -37.20658159 334.33272393 -30 335 C-30.76084588 339.18865681 -31.87822698 343.22484795 -33.0625 347.3125 C-33.60583984 349.19388672 -33.60583984 349.19388672 -34.16015625 351.11328125 C-34.43730469 352.06589844 -34.71445312 353.01851563 -35 354 C-35.66 354 -36.32 354 -37 354 C-37.09087891 355.03060547 -37.09087891 355.03060547 -37.18359375 356.08203125 C-37.26738281 356.98308594 -37.35117187 357.88414062 -37.4375 358.8125 C-37.51871094 359.70582031 -37.59992187 360.59914063 -37.68359375 361.51953125 C-38 364 -38 364 -39 367 C-41.03167881 388.88608486 -35.62833837 411.15691373 -22.046875 428.66015625 C-15.7522915 435.85568204 -8.73672068 441.7324979 1 443 C8.75433004 443.31650327 16.32522646 443.24752496 24 442 C24 441.34 24 440.68 24 440 C24.54527344 439.78085937 25.09054687 439.56171875 25.65234375 439.3359375 C48.08155809 429.90416531 63.83296769 409.5541085 74 388 C74.66 388 75.32 388 76 388 C76.061875 387.236875 76.12375 386.47375 76.1875 385.6875 C77.13375944 381.39293791 78.80940259 377.82433769 80.66796875 373.85546875 C84.02486807 366.65930042 86.5094177 359.60606413 88.2890625 351.859375 C89 349 89 349 89.9296875 346.27734375 C91.3768934 341.84593591 92.43203842 337.3481151 93.5 332.8125 C93.72139648 331.87865479 93.94279297 330.94480957 94.17089844 329.98266602 C95.48788072 324.36592251 96.70550303 318.75348657 97.640625 313.05859375 C98 311 98 311 98.5234375 309.078125 C99.1190252 306.48097208 99.2318996 303.97348597 99.375 301.3125 C99.67459805 296.88571381 100.21707181 292.63521376 101.10943604 288.28889465 C103.00962765 278.89488013 103.40538339 269.80213351 103.28125 260.23901367 C103.24952642 257.77572709 103.24020168 255.31308208 103.234375 252.84960938 C103.2252222 251.26040889 103.21485199 249.67121483 103.203125 248.08203125 C103.19675018 246.99448296 103.19675018 246.99448296 103.19024658 245.88496399 C103.13326418 241.81959199 102.7222841 237.99546762 102 234 C101.84289474 232.20387814 101.71179736 230.40531042 101.60546875 228.60546875 C100.78423132 215.93793116 99.50248037 203.52130437 97.32104492 191.01049805 C97.15064697 190.03121338 96.98024902 189.05192871 96.8046875 188.04296875 C96.57241455 186.75942505 96.57241455 186.75942505 96.33544922 185.44995117 C95.99118586 182.93562599 95.94165783 180.53448598 96 178 C95.34 178 94.68 178 94 178 C93.86722656 176.94039062 93.73445312 175.88078125 93.59765625 174.7890625 C93.41946125 173.40101721 93.2410654 172.01299769 93.0625 170.625 C92.97548828 169.92632812 92.88847656 169.22765625 92.79882812 168.5078125 C92.33681872 164.63216425 92.33681872 164.63216425 91 161 C90.960008 159.00039988 90.95653201 156.99952758 91 155 C90.34 155 89.68 155 89 155 C87.2197574 148.87596547 85.64745088 142.71006709 84.09765625 136.5234375 C83.07658685 133.24584107 81.79602898 130.89033079 80 128 C79.41015625 125.89453125 79.41015625 125.89453125 79.0625 123.8125 C77.23735477 114.55116868 72.6908908 105.85972703 68.9375 97.25 C68.2868457 95.74759766 68.2868457 95.74759766 67.62304688 94.21484375 C65.5320571 89.40906817 63.39071412 84.6662131 61 80 C58 73.5308642 58 73.5308642 58 71 C57.34 71 56.68 71 56 71 C55.35309078 69.3962669 54.70751236 67.79199694 54.0625 66.1875 C53.70285156 65.29417969 53.34320312 64.40085937 52.97265625 63.48046875 C52.26386514 61.6729091 51.6139753 59.84192591 51 58 C50.34 58 49.68 58 49 58 C48.44957031 56.85402344 47.89914062 55.70804688 47.33203125 54.52734375 C45.06932765 50.00690953 42.45519477 45.78803956 39.6875 41.5625 C39.19894531 40.81532715 38.71039062 40.0681543 38.20703125 39.29833984 C28.69168734 24.86484695 17.42222183 12.0197597 2.1796875 3.40625 C1.10074219 2.71015625 1.10074219 2.71015625 0 2 C0 1.34 0 0.68 0 0 Z " fill="#511EB9" transform="translate(612,90)"/>
<path d="M0 0 C20.73894044 -0.58194151 34.41821055 2.13653507 50.07958984 16.60961914 C68.93780922 34.90375644 76.80459278 61.73652549 77.52612305 87.40454102 C77.5662457 90.96299645 77.56914629 94.51947649 77.55761719 98.078125 C77.56148437 99.27179688 77.56535156 100.46546875 77.56933594 101.6953125 C77.5540533 115.66364441 76.43362827 129.1094936 71.12011719 142.171875 C70.08248093 145.04895734 69.52660509 147.99948431 68.95996094 151 C68.39436618 153.22886229 67.52684119 155.06221024 66.43261719 157.078125 C65.77261719 157.078125 65.11261719 157.078125 64.43261719 157.078125 C64.10261719 159.388125 63.77261719 161.698125 63.43261719 164.078125 C62.77261719 164.078125 62.11261719 164.078125 61.43261719 164.078125 C61.18898438 164.93535156 60.94535156 165.79257812 60.69433594 166.67578125 C56.48359555 178.03044031 47.31338571 188.74441494 36.43261719 194.078125 C35.77261719 194.078125 35.11261719 194.078125 34.43261719 194.078125 C34.43261719 194.738125 34.43261719 195.398125 34.43261719 196.078125 C30.16645402 197.21576851 26.86775408 198.078125 22.43261719 198.078125 C23.62833038 190.51051916 25.41617293 183.2070367 27.53027344 175.8515625 C32.67695673 154.32906873 30.44187909 131.0022483 19.55761719 111.765625 C15.08139268 104.63343096 9.90688293 99.89152589 2.43261719 96.078125 C2.43261719 95.418125 2.43261719 94.758125 2.43261719 94.078125 C0.79292969 93.8615625 0.79292969 93.8615625 -0.87988281 93.640625 C-4.56738281 93.078125 -4.56738281 93.078125 -7.56738281 92.078125 C-23.79900716 90.59589583 -39.85571936 95.69732696 -52.52075195 105.8659668 C-71.8751663 122.07143744 -86.17720627 144.31448474 -94.56738281 168.078125 C-96.12988281 172.203125 -96.12988281 172.203125 -96.82128906 174.0234375 C-97.79016113 176.69164016 -98.67943449 179.38187317 -99.56738281 182.078125 C-99.76936279 182.68897949 -99.97134277 183.29983398 -100.17944336 183.92919922 C-100.83825878 185.93446396 -101.48485271 187.94338728 -102.12988281 189.953125 C-102.35095703 190.62214844 -102.57203125 191.29117188 -102.79980469 191.98046875 C-103.92212262 195.50000352 -104.73688045 198.84766235 -105.15722656 202.5234375 C-105.56738281 206.078125 -105.56738281 206.078125 -106.56738281 207.078125 C-106.77342366 208.40594378 -106.93367871 209.74108395 -107.06738281 211.078125 C-107.4562717 214.96701389 -107.4562717 214.96701389 -108.56738281 216.078125 C-108.96731967 218.76675164 -109.31872824 221.44164717 -109.62988281 224.140625 C-109.72076172 224.89923828 -109.81164062 225.65785156 -109.90527344 226.43945312 C-110.12982021 228.3185551 -110.3490926 230.19828595 -110.56738281 232.078125 C-111.22738281 232.078125 -111.88738281 232.078125 -112.56738281 232.078125 C-112.61464463 240.03493597 -112.64971085 247.99168412 -112.67100716 255.94860268 C-112.68125088 259.64710218 -112.695032 263.34550277 -112.71826172 267.04394531 C-112.81261963 282.52592607 -112.70998538 297.95735417 -111.74707031 313.4140625 C-111.64267136 315.19763657 -111.64267136 315.19763657 -111.53616333 317.01724243 C-111.04868717 323.92116261 -109.97376391 330.42908729 -108.27981567 337.14102173 C-107.56996643 340.06747369 -107.0397504 342.9799567 -106.56738281 345.953125 C-105.80829499 350.7245342 -104.94290552 355.46429772 -104.00488281 360.203125 C-103.75609375 361.46382813 -103.50730469 362.72453125 -103.25097656 364.0234375 C-102.7193105 366.97517871 -102.7193105 366.97517871 -101.56738281 369.078125 C-101.52739081 371.07772512 -101.52391482 373.07859742 -101.56738281 375.078125 C-100.90738281 375.078125 -100.24738281 375.078125 -99.56738281 375.078125 C-99.1690625 376.84929687 -99.1690625 376.84929687 -98.76269531 378.65625 C-98.40619279 380.21360311 -98.0494071 381.77089142 -97.69238281 383.328125 C-97.51835937 384.10542969 -97.34433594 384.88273437 -97.16503906 385.68359375 C-96.90400391 386.81474609 -96.90400391 386.81474609 -96.63769531 387.96875 C-96.48059082 388.66000977 -96.32348633 389.35126953 -96.16162109 390.06347656 C-95.6188821 392.13636951 -95.6188821 392.13636951 -94.50830078 394.13183594 C-93.2106385 396.8160507 -93.43387924 399.14104634 -93.56738281 402.078125 C-92.90738281 402.078125 -92.24738281 402.078125 -91.56738281 402.078125 C-88.12319147 411.48814778 -88.12319147 411.48814778 -88.56738281 416.078125 C-87.90738281 416.078125 -87.24738281 416.078125 -86.56738281 416.078125 C-86.34824219 416.79355469 -86.12910156 417.50898437 -85.90332031 418.24609375 C-83.37963173 426.1762209 -80.14836372 433.57511739 -76.56738281 441.078125 C-74.73887603 444.96625096 -73.56738281 447.66387673 -73.56738281 452.078125 C-72.90738281 452.078125 -72.24738281 452.078125 -71.56738281 452.078125 C-70.89255859 453.47998047 -70.89255859 453.47998047 -70.20410156 454.91015625 C-49.57245923 499.16114635 -49.57245923 499.16114635 -14.56738281 530.078125 C-14.56738281 530.738125 -14.56738281 531.398125 -14.56738281 532.078125 C-13.24738281 532.408125 -11.92738281 532.738125 -10.56738281 533.078125 C-14.42354423 534.33797464 -16.59144147 533.50791176 -20.32910156 531.98046875 C-22.71552638 531.0184022 -25.1235797 530.19496335 -27.56738281 529.390625 C-28.71207031 529.01357422 -28.71207031 529.01357422 -29.87988281 528.62890625 C-30.71519531 528.35626953 -30.71519531 528.35626953 -31.56738281 528.078125 C-31.56738281 527.418125 -31.56738281 526.758125 -31.56738281 526.078125 C-32.43363281 525.954375 -33.29988281 525.830625 -34.19238281 525.703125 C-37.46252135 525.09754379 -40.4399518 524.19506465 -43.56738281 523.078125 C-43.56738281 522.418125 -43.56738281 521.758125 -43.56738281 521.078125 C-44.49550781 521.036875 -45.42363281 520.995625 -46.37988281 520.953125 C-52.08531229 520.09448611 -56.65628557 516.94715088 -61.56738281 514.078125 C-63.04684711 513.24560829 -64.5273959 512.41501709 -66.00878906 511.5859375 C-75.98906095 505.9605643 -85.40198686 499.9437582 -94.56738281 493.078125 C-95.56898438 492.35109375 -96.57058594 491.6240625 -97.60253906 490.875 C-109.97789279 481.80952349 -121.38263738 471.55752613 -132.56738281 461.078125 C-133.19902344 460.500625 -133.83066406 459.923125 -134.48144531 459.328125 C-139.49779952 454.57328689 -143.59394618 449.07875417 -147.80566406 443.62109375 C-150.17194247 440.56120867 -152.63388341 437.596065 -155.12988281 434.640625 C-160.47952848 428.14257597 -165.0106742 421.14131457 -169.56738281 414.078125 C-170.23125 413.05976563 -170.89511719 412.04140625 -171.57910156 410.9921875 C-178.56968894 400.16511724 -184.51700459 388.93553474 -189.56738281 377.078125 C-190.6267526 375.03284538 -191.69747952 372.99618685 -192.79785156 370.97265625 C-193.56738281 369.078125 -193.56738281 369.078125 -193.56738281 365.078125 C-194.22738281 365.078125 -194.88738281 365.078125 -195.56738281 365.078125 C-195.82261719 364.22154297 -195.82261719 364.22154297 -196.08300781 363.34765625 C-197.21055017 359.57518741 -198.33995808 355.80438671 -199.51660156 352.046875 C-202.97719443 340.99486299 -206.32462705 329.91332094 -208.07519531 318.4453125 C-208.48595397 316.05086415 -208.48595397 316.05086415 -209.55175781 313.86328125 C-215.03229571 298.83396001 -212.75581815 279.174049 -212.75488281 263.390625 C-212.75624237 261.88666672 -212.75624237 261.88666672 -212.75762939 260.35232544 C-212.75473654 232.02057197 -212.75473654 232.02057197 -210.15185547 221.46484375 C-209.43750388 218.54775891 -208.83805011 215.61403489 -208.23535156 212.671875 C-204.77510014 196.02481801 -201.21788087 179.77612042 -194.56738281 164.078125 C-194.06057174 162.81366042 -193.55692653 161.54792442 -193.05566406 160.28125 C-192.78939209 159.60852051 -192.52312012 158.93579102 -192.2487793 158.24267578 C-191.72309392 156.91310398 -191.19784477 155.58335959 -190.6730957 154.25341797 C-189.42684128 151.12315645 -188.14034123 148.05925572 -186.56738281 145.078125 C-185.90738281 145.078125 -185.24738281 145.078125 -184.56738281 145.078125 C-184.49648438 144.26601562 -184.42558594 143.45390625 -184.35253906 142.6171875 C-183.3364593 138.03724588 -181.32843135 134.49623634 -179.00488281 130.453125 C-178.55306641 129.65551758 -178.10125 128.85791016 -177.63574219 128.03613281 C-173.90060018 121.51148771 -169.89589185 115.22657534 -165.56738281 109.078125 C-165.17550781 108.51641602 -164.78363281 107.95470703 -164.37988281 107.37597656 C-150.18067171 87.04226254 -133.75180384 67.61649084 -114.21972656 52.17578125 C-112.47818171 50.79844755 -110.76065753 49.39007292 -109.07128906 47.94921875 C-96.72092418 37.44106964 -82.83078034 28.74562497 -68.56738281 21.078125 C-67.53097656 20.51222656 -66.49457031 19.94632813 -65.42675781 19.36328125 C-62.56738281 18.078125 -62.56738281 18.078125 -58.56738281 18.078125 C-58.56738281 17.418125 -58.56738281 16.758125 -58.56738281 16.078125 C-53.57615135 13.8597999 -48.52280738 11.95103826 -43.37988281 10.11328125 C-40.80536939 9.16571728 -38.28425056 8.1389618 -35.75488281 7.078125 C-23.87583992 2.33026109 -12.69937243 0.38643963 0 0 Z " fill="#511EB9" transform="translate(461.5673828125,95.921875)"/>
<path d="M0 0 C0.33 0 0.66 0 1 0 C1.02496476 5.47688475 1.04298372 10.95373541 1.05493164 16.43066406 C1.05991956 18.28874286 1.06671228 20.14681782 1.07543945 22.00488281 C1.13463331 34.94396256 1.03013546 47.6258116 -1.4375 60.375 C-2.83077683 67.89390524 -3.97896671 75.42032933 -5 83 C-5.66 83 -6.32 83 -7 83 C-7 85.64 -7 88.28 -7 91 C-7.66 91 -8.32 91 -9 91 C-8.938125 91.9075 -8.87625 92.815 -8.8125 93.75 C-8.77795796 99.33429576 -10.52645691 104.65840632 -12 110 C-12.66 110 -13.32 110 -14 110 C-14.07347656 111.08667969 -14.07347656 111.08667969 -14.1484375 112.1953125 C-14.55457508 117.44709158 -15.11187234 122.04366489 -17 127 C-17.36106097 128.66088045 -17.70462173 130.32618981 -18 132 C-18.66 132 -19.32 132 -20 132 C-20.144375 132.598125 -20.28875 133.19625 -20.4375 133.8125 C-20.8872439 135.56150404 -21.42892341 137.28677023 -22 139 C-22.66 139 -23.32 139 -24 139 C-24.12375 140.0725 -24.2475 141.145 -24.375 142.25 C-24.89643936 145.37863615 -25.40088254 147.33480424 -27 150 C-27.66 150 -28.32 150 -29 150 C-29.061875 150.64839844 -29.12375 151.29679688 -29.1875 151.96484375 C-30.35236741 156.31629558 -32.62425781 159.76322169 -35 163.5625 C-35.74213745 164.76132812 -35.74213745 164.76132812 -36.49926758 165.984375 C-40.65531132 172.61589108 -45.13782331 178.86353537 -50 185 C-50.63164063 185.82371094 -51.26328125 186.64742187 -51.9140625 187.49609375 C-55.85667655 192.56632786 -60.05247479 197.37853358 -64.375 202.125 C-64.89940674 202.70628662 -65.42381348 203.28757324 -65.96411133 203.88647461 C-67.26713192 205.29788543 -68.62910724 206.65441603 -70 208 C-70.66 208 -71.32 208 -72 208 C-72.33 208.99 -72.66 209.98 -73 211 C-74.99609375 212.82421875 -74.99609375 212.82421875 -77.4375 214.6875 C-78.64212891 215.62142578 -78.64212891 215.62142578 -79.87109375 216.57421875 C-82 218 -82 218 -84 218 C-84 218.66 -84 219.32 -84 220 C-85.44946289 221.28100586 -85.44946289 221.28100586 -87.47265625 222.71484375 C-88.20806641 223.23626953 -88.94347656 223.75769531 -89.70117188 224.29492188 C-90.8700293 225.10799805 -90.8700293 225.10799805 -92.0625 225.9375 C-92.81466797 226.47568359 -93.56683594 227.01386719 -94.34179688 227.56835938 C-104.92569937 235 -104.92569937 235 -111 235 C-111 235.66 -111 236.32 -111 237 C-117.64029477 239.98927359 -123.92316663 242.49013822 -131.13671875 243.640625 C-133.00780004 243.82100088 -133.00780004 243.82100088 -134 245 C-136.37688151 245.40602589 -138.73515942 245.7546484 -141.125 246.0625 C-143.07792969 246.32740234 -143.07792969 246.32740234 -145.0703125 246.59765625 C-148.74870773 246.97427127 -152.30598965 247.07196124 -156 247 C-156.33 247.66 -156.66 248.32 -157 249 C-158.588417 247.29639246 -160.17050381 245.58688171 -161.75 243.875 C-163.07257812 242.44800781 -163.07257812 242.44800781 -164.421875 240.9921875 C-171 233.35757576 -171 233.35757576 -171 230 C-171.66 230 -172.32 230 -173 230 C-173.67354499 228.56570999 -174.33859701 227.12742943 -175 225.6875 C-175.556875 224.48673828 -175.556875 224.48673828 -176.125 223.26171875 C-177 221 -177 221 -177 218 C-177.66 218 -178.32 218 -179 218 C-181.31984733 210.71387757 -183.4980674 203.49792917 -185 196 C-185.2475 194.85660156 -185.495 193.71320313 -185.75 192.53515625 C-187.40473384 184.69903685 -188.68871887 177.01784717 -189 169 C-189.02723145 168.33581055 -189.05446289 167.67162109 -189.08251953 166.98730469 C-189.5465471 153.94200142 -188.71750357 140.79768473 -186 128 C-185.505 127.505 -185.505 127.505 -185 127 C-184.6957344 125.59013562 -184.43279092 124.17131189 -184.1875 122.75 C-179.76685956 99.93169422 -169.7078068 77.45730361 -151 63 C-144.95128417 59.07428276 -140.20658159 57.33272393 -133 58 C-133.76084588 62.18865681 -134.87822698 66.22484795 -136.0625 70.3125 C-136.42472656 71.56675781 -136.78695312 72.82101562 -137.16015625 74.11328125 C-137.43730469 75.06589844 -137.71445312 76.01851563 -138 77 C-138.66 77 -139.32 77 -140 77 C-140.09087891 78.03060547 -140.09087891 78.03060547 -140.18359375 79.08203125 C-140.26738281 79.98308594 -140.35117187 80.88414062 -140.4375 81.8125 C-140.51871094 82.70582031 -140.59992187 83.59914063 -140.68359375 84.51953125 C-141 87 -141 87 -142 90 C-144.03167881 111.88608486 -138.62833837 134.15691373 -125.046875 151.66015625 C-118.7522915 158.85568204 -111.73672068 164.7324979 -102 166 C-94.24566996 166.31650327 -86.67477354 166.24752496 -79 165 C-79 164.34 -79 163.68 -79 163 C-78.18208984 162.67128906 -78.18208984 162.67128906 -77.34765625 162.3359375 C-54.91844191 152.90416531 -39.16703231 132.5541085 -29 111 C-28.34 111 -27.68 111 -27 111 C-26.938125 110.236875 -26.87625 109.47375 -26.8125 108.6875 C-25.86624056 104.39293791 -24.19059741 100.82433769 -22.33203125 96.85546875 C-18.97513193 89.65930042 -16.4905823 82.60606413 -14.7109375 74.859375 C-14 72 -14 72 -13.0703125 69.27734375 C-11.6231066 64.84593591 -10.56796158 60.3481151 -9.5 55.8125 C-9.27860352 54.87865479 -9.05720703 53.94480957 -8.82910156 52.98266602 C-7.51211928 47.36592251 -6.29449697 41.75348657 -5.359375 36.05859375 C-5 34 -5 34 -4.4765625 32.078125 C-3.8809748 29.48097208 -3.7681004 26.97348597 -3.625 24.3125 C-3.05380331 16.09101327 -1.53934598 8.08398674 0 0 Z " fill="#7E57E7" transform="translate(715,367)"/>
<path d="M0 0 C4.77582113 -0.46457404 7.71392495 -0.39576604 11.6484375 2.51953125 C21.60515407 13.00991563 27.52784565 24.94694406 31.94921875 38.51953125 C32.29082031 39.33164063 32.63242187 40.14375 32.984375 40.98046875 C34.19229433 44.15920384 34.84693249 47.31015827 35.51171875 50.64453125 C35.76050781 51.86398438 36.00929688 53.0834375 36.265625 54.33984375 C37.971197 64.02050036 38.10598638 73.71392418 38.07421875 83.51953125 C38.07808594 84.71320313 38.08195313 85.906875 38.0859375 87.13671875 C38.07065486 101.10505066 36.95022983 114.55089985 31.63671875 127.61328125 C30.59908249 130.49036359 30.04320665 133.44089056 29.4765625 136.44140625 C28.91096774 138.67026854 28.04344275 140.50361649 26.94921875 142.51953125 C26.28921875 142.51953125 25.62921875 142.51953125 24.94921875 142.51953125 C24.61921875 144.82953125 24.28921875 147.13953125 23.94921875 149.51953125 C23.28921875 149.51953125 22.62921875 149.51953125 21.94921875 149.51953125 C21.70558594 150.37675781 21.46195313 151.23398437 21.2109375 152.1171875 C17.00019712 163.47184656 7.82998728 174.18582119 -3.05078125 179.51953125 C-3.71078125 179.51953125 -4.37078125 179.51953125 -5.05078125 179.51953125 C-5.05078125 180.17953125 -5.05078125 180.83953125 -5.05078125 181.51953125 C-9.31694441 182.65717476 -12.61564436 183.51953125 -17.05078125 183.51953125 C-15.85506806 175.95192541 -14.0672255 168.64844295 -11.953125 161.29296875 C-6.80644171 139.77047498 -9.04151935 116.44365455 -19.92578125 97.20703125 C-24.40200576 90.07483721 -29.57651551 85.33293214 -37.05078125 81.51953125 C-37.05078125 80.85953125 -37.05078125 80.19953125 -37.05078125 79.51953125 C-38.14390625 79.37515625 -39.23703125 79.23078125 -40.36328125 79.08203125 C-44.05078125 78.51953125 -44.05078125 78.51953125 -47.05078125 77.51953125 C-63.28240559 76.03730208 -79.33911779 81.13873321 -92.00415039 91.30737305 C-111.35856474 107.51284369 -125.66060471 129.75589099 -134.05078125 153.51953125 C-135.61328125 157.64453125 -135.61328125 157.64453125 -136.3046875 159.46484375 C-137.27355957 162.13304641 -138.16283293 164.82327942 -139.05078125 167.51953125 C-139.25276123 168.13038574 -139.45474121 168.74124023 -139.6628418 169.37060547 C-140.32165722 171.37587021 -140.96825114 173.38479353 -141.61328125 175.39453125 C-141.83435547 176.06355469 -142.05542969 176.73257813 -142.28320312 177.421875 C-143.40552105 180.94140977 -144.22027889 184.2890686 -144.640625 187.96484375 C-145.05078125 191.51953125 -145.05078125 191.51953125 -146.05078125 192.51953125 C-146.2568221 193.84735003 -146.41707715 195.1824902 -146.55078125 196.51953125 C-146.93967014 200.40842014 -146.93967014 200.40842014 -148.05078125 201.51953125 C-148.45071811 204.20815789 -148.80212668 206.88305342 -149.11328125 209.58203125 C-149.24959961 210.71995117 -149.24959961 210.71995117 -149.38867188 211.88085938 C-149.61321865 213.75996135 -149.83249103 215.6396922 -150.05078125 217.51953125 C-150.71078125 217.51953125 -151.37078125 217.51953125 -152.05078125 217.51953125 C-152.05078125 241.60953125 -152.05078125 265.69953125 -152.05078125 290.51953125 C-152.38078125 290.51953125 -152.71078125 290.51953125 -153.05078125 290.51953125 C-154.09722744 284.48621322 -154.22746913 278.58827074 -154.25390625 272.47265625 C-154.26073929 271.39955704 -154.26757233 270.32645782 -154.27461243 269.22084045 C-154.29171286 265.7370389 -154.2979468 262.25337239 -154.30078125 258.76953125 C-154.30278534 257.58789398 -154.30478943 256.40625671 -154.30685425 255.18881226 C-154.3131602 240.01501976 -154.00510451 224.9464262 -152.61328125 209.83203125 C-152.54588745 209.09674194 -152.47849365 208.36145264 -152.40905762 207.60388184 C-151.31971786 196.05740448 -151.31971786 196.05740448 -150.05078125 193.51953125 C-149.84985342 192.02373521 -149.68742059 190.52256401 -149.55078125 189.01953125 C-149.16189236 184.74175347 -149.16189236 184.74175347 -148.05078125 182.51953125 C-147.74032599 179.9280922 -147.54104213 177.33581393 -147.33203125 174.734375 C-147.05078125 172.51953125 -147.05078125 172.51953125 -146.05078125 171.51953125 C-145.59969271 168.08898394 -145.23380766 164.65915119 -144.88867188 161.21679688 C-144.34483693 156.16311115 -143.3820773 151.42694474 -142.05078125 146.51953125 C-141.39078125 146.51953125 -140.73078125 146.51953125 -140.05078125 146.51953125 C-139.72078125 142.88953125 -139.39078125 139.25953125 -139.05078125 135.51953125 C-138.39078125 135.51953125 -137.73078125 135.51953125 -137.05078125 135.51953125 C-137.05078125 133.86953125 -137.05078125 132.21953125 -137.05078125 130.51953125 C-136.39078125 130.51953125 -135.73078125 130.51953125 -135.05078125 130.51953125 C-134.72078125 127.87953125 -134.39078125 125.23953125 -134.05078125 122.51953125 C-133.39078125 122.51953125 -132.73078125 122.51953125 -132.05078125 122.51953125 C-132.13328125 121.85953125 -132.21578125 121.19953125 -132.30078125 120.51953125 C-131.94602268 116.26242846 -130.05863347 113.23729633 -128.05078125 109.51953125 C-125.19166968 103.92409205 -122.45002268 98.32822104 -120.05078125 92.51953125 C-119.39078125 92.51953125 -118.73078125 92.51953125 -118.05078125 92.51953125 C-117.94064697 91.78307373 -117.8305127 91.04661621 -117.71704102 90.2878418 C-117.01743191 87.38096468 -116.08155165 85.67105732 -114.390625 83.2265625 C-113.84825195 82.43628662 -113.30587891 81.64601074 -112.74707031 80.83178711 C-111.87646973 79.59440796 -111.87646973 79.59440796 -110.98828125 78.33203125 C-110.10027832 77.05501343 -110.10027832 77.05501343 -109.19433594 75.75219727 C-105.03713928 69.81666948 -100.78422051 64.01229306 -96.05078125 58.51953125 C-95.37015625 57.72933594 -94.68953125 56.93914062 -93.98828125 56.125 C-89.67810959 51.2375732 -85.18641427 46.53487588 -80.61328125 41.89453125 C-80.09282227 41.36102051 -79.57236328 40.82750977 -79.03613281 40.27783203 C-77.74645805 38.98518175 -76.40266078 37.74697881 -75.05078125 36.51953125 C-74.39078125 36.51953125 -73.73078125 36.51953125 -73.05078125 36.51953125 C-73.05078125 35.85953125 -73.05078125 35.19953125 -73.05078125 34.51953125 C-70.79699915 32.42262397 -68.23028093 30.6977413 -65.73828125 28.89453125 C-64.7028418 28.12109375 -64.7028418 28.12109375 -63.64648438 27.33203125 C-62.97939453 26.84476563 -62.31230469 26.3575 -61.625 25.85546875 C-61.01229248 25.4073584 -60.39958496 24.95924805 -59.76831055 24.49755859 C-58.05078125 23.51953125 -58.05078125 23.51953125 -55.05078125 23.51953125 C-55.05078125 22.85953125 -55.05078125 22.19953125 -55.05078125 21.51953125 C-52.76546219 19.95985368 -50.49899806 18.53528126 -48.11328125 17.14453125 C-47.07820435 16.53508667 -47.07820435 16.53508667 -46.0222168 15.91333008 C-36.70599704 10.49499131 -25.0765248 3.95617209 -14.05078125 4.51953125 C-14.05078125 3.85953125 -14.05078125 3.19953125 -14.05078125 2.51953125 C-9.39379102 1.49279325 -4.6985942 0.80014472 0 0 Z " fill="#7E57E7" transform="translate(501.05078125,110.48046875)"/>
<path d="M0 0 C7.26 0 14.52 0 22 0 C22.33 14.85 22.66 29.7 23 45 C25.31 42.69 27.62 40.38 30 38 C37.59465324 32.44293665 48.92443166 33.00837518 58 34 C67.97264383 36.63242844 74.86709372 41.79728339 81 50 C87.88255833 61.95863172 89.3907928 75.85724268 86.2265625 89.28125 C85.30960711 91.65799837 84.25278373 93.78587876 83 96 C82.71125 96.68707031 82.4225 97.37414062 82.125 98.08203125 C78.0248638 107.6551171 70.39601342 113.11141896 61 117 C53.36338915 119.54553695 42.60091223 119.28894903 34.890625 117.12890625 C30.02930378 114.57252182 25.97050887 110.6246746 23 106 C23 105.34 23 104.68 23 104 C22.34 104 21.68 104 21 104 C21 108.29 21 112.58 21 117 C17.68744674 117.02683436 14.37510817 117.0467578 11.0625 117.0625 C10.11697266 117.07087891 9.17144531 117.07925781 8.19726562 117.08789062 C6.84858398 117.09272461 6.84858398 117.09272461 5.47265625 117.09765625 C4.64000244 117.10289307 3.80734863 117.10812988 2.94946289 117.11352539 C1 117 1 117 0 116 C-0.09575309 114.49448826 -0.12188187 112.9844897 -0.12025452 111.47593689 C-0.12162918 110.49852036 -0.12300385 109.52110382 -0.12442017 108.5140686 C-0.12082489 107.43297821 -0.11722961 106.35188782 -0.11352539 105.23803711 C-0.11367142 104.1064769 -0.11381744 102.97491669 -0.1139679 101.80906677 C-0.11326819 98.04847329 -0.10547311 94.28792863 -0.09765625 90.52734375 C-0.09579227 87.92802457 -0.09436828 85.32870503 -0.09336853 82.72938538 C-0.08993341 76.57411423 -0.08204256 70.4188634 -0.07201904 64.26359993 C-0.06085694 57.25766654 -0.05534721 50.25173233 -0.05032361 43.24579227 C-0.03985992 28.83051711 -0.02151482 14.4152628 0 0 Z " fill="#09090D" transform="translate(455,670)"/>
<path d="M0 0 C3.37049553 -0.16627452 6.73992801 -0.26656775 10.11328125 -0.35546875 C11.06303833 -0.40312378 12.01279541 -0.45077881 12.99133301 -0.49987793 C17.8074054 -0.59504896 21.01122139 -0.59431447 24.68159485 2.74555969 C28.2981255 6.99137773 28.2981255 6.99137773 29.66796875 9.29296875 C31.90290086 12.88365356 34.38859165 16.17740608 37 19.5 C37.82084579 20.5790216 38.64115632 21.6584506 39.4609375 22.73828125 C42.51919246 26.71353447 45.7702828 30.51790996 49.02856445 34.3293457 C53.13142084 39.13217404 57.08195451 44.04530498 61 49 C67.93826996 57.71769696 74.97345716 66.35194727 82 75 C82.33 50.25 82.66 25.5 83 0 C90.26 0 97.52 0 105 0 C105 36.63 105 73.26 105 111 C84 111 84 111 78.75 106.1875 C77.46431195 104.14705581 76.21390122 102.08395059 75 100 C73.57394731 98.20306914 72.11494189 96.43182221 70.625 94.6875 C67.21337388 90.52234951 63.87593406 86.30559428 60.5625 82.0625 C56.2712439 76.57058932 51.87077632 71.19111392 47.390625 65.8515625 C41.39414463 58.69889801 35.53716624 51.43589421 29.7109375 44.14453125 C29.15946045 43.45476196 28.6079834 42.76499268 28.03979492 42.05432129 C26.69298606 40.36971584 25.34646345 38.68488154 24 37 C23.98969254 37.91232895 23.97938507 38.8246579 23.96876526 39.76463318 C23.87096739 48.34390004 23.76847872 56.92309507 23.66066074 65.50224209 C23.60539168 69.913334 23.55196546 74.32443249 23.50268555 78.7355957 C23.45510055 82.98906987 23.40276014 87.24246089 23.34705925 91.49583626 C23.32660902 93.12219243 23.30790044 94.74857142 23.29092598 96.37496758 C23.26694073 98.64516363 23.23687865 100.91520113 23.20532227 103.18530273 C23.18977798 104.47991928 23.1742337 105.77453583 23.15821838 107.10838318 C23 110 23 110 22 111 C20.45044441 111.09899523 18.89646327 111.13079524 17.34375 111.1328125 C15.93416016 111.13474609 15.93416016 111.13474609 14.49609375 111.13671875 C13.01302734 111.13091797 13.01302734 111.13091797 11.5 111.125 C10.51128906 111.12886719 9.52257812 111.13273438 8.50390625 111.13671875 C7.56417969 111.13542969 6.62445313 111.13414062 5.65625 111.1328125 C4.78806641 111.13168457 3.91988281 111.13055664 3.02539062 111.12939453 C1 111 1 111 0 110 C-0.09554399 108.57053529 -0.12188438 107.13637335 -0.12025452 105.70372009 C-0.12162918 104.77678848 -0.12300385 103.84985687 -0.12442017 102.89483643 C-0.12082489 101.86985046 -0.11722961 100.8448645 -0.11352539 99.78881836 C-0.11367142 98.71577957 -0.11381744 97.64274078 -0.1139679 96.53718567 C-0.11326824 92.97138484 -0.10547338 89.40563551 -0.09765625 85.83984375 C-0.09579226 83.37504607 -0.09436827 80.91024801 -0.09336853 78.44544983 C-0.08954187 71.94346095 -0.07971032 65.44149425 -0.06866455 58.93951416 C-0.05791748 52.31059183 -0.05387159 45.68166307 -0.04882812 39.05273438 C-0.03808819 26.03514676 -0.02120097 13.01757456 0 0 Z " fill="#0A0A0E" transform="translate(230,676)"/>
<path d="M0 0 C8.93887221 5.45164608 15.89598729 13.76270413 19.41796875 23.6484375 C21.4281958 34.69180019 21.86724731 45.60466917 16.41796875 55.6484375 C15.85722656 56.70804688 15.85722656 56.70804688 15.28515625 57.7890625 C9.75734917 67.3803569 2.52281589 72.34821929 -7.58203125 76.6484375 C-8.46503906 77.02484375 -9.34804688 77.40125 -10.2578125 77.7890625 C-21.26578314 80.63483634 -36.05184877 80.43358232 -46.2109375 75.19921875 C-50.06510045 72.67845649 -53.38506987 69.96060469 -56.58203125 66.6484375 C-57.37867188 65.88273438 -57.37867188 65.88273438 -58.19140625 65.1015625 C-66.88754483 56.04682026 -69.18943355 46.28132527 -68.97607422 34.18457031 C-68.83270781 30.24404208 -68.52017339 26.49404495 -67.58203125 22.6484375 C-66.92203125 22.6484375 -66.26203125 22.6484375 -65.58203125 22.6484375 C-65.49953125 21.7821875 -65.41703125 20.9159375 -65.33203125 20.0234375 C-64.45925995 16.09596665 -62.97513647 13.86203593 -60.58203125 10.6484375 C-60.00453125 9.8234375 -59.42703125 8.9984375 -58.83203125 8.1484375 C-43.16200173 -9.26270641 -19.86398169 -10.39778769 0 0 Z " fill="#08070C" transform="translate(419.58203125,709.3515625)"/>
<path d="M0 0 C0.81662109 -0.020625 1.63324219 -0.04125 2.47460938 -0.0625 C12.97072001 -0.12940748 21.20930576 4.19547905 28.859375 11.25390625 C39.75437975 22.70185297 40.6875 33.50584658 40.6875 49.25 C20.8875 49.25 1.0875 49.25 -19.3125 49.25 C-14.98327258 59.8349555 -14.98327258 59.8349555 -7.3125 65.25 C-2.58518438 66.68610769 2.16413886 66.43414496 7.0625 66.4375 C7.99578125 66.44974609 8.9290625 66.46199219 9.890625 66.47460938 C17.59324691 66.49097472 23.05211757 64.74416624 29.7578125 61.0546875 C31.6875 60.25 31.6875 60.25 35.6875 60.25 C35.79537818 63.02186988 35.87473327 65.78955537 35.9375 68.5625 C35.97101563 69.34818359 36.00453125 70.13386719 36.0390625 70.94335938 C36.1372311 76.71076468 36.1372311 76.71076468 34.09765625 79.15625 C24.3012815 83.6019306 14.32292199 84.61562958 3.6875 84.625 C2.72094482 84.62653076 1.75438965 84.62806152 0.75854492 84.62963867 C-10.94894399 84.44827645 -20.65215376 81.36775432 -29.359375 73.36328125 C-37.90302229 64.11905488 -41.9019175 53.76853876 -41.75 41.3125 C-41.74170166 40.43295654 -41.73340332 39.55341309 -41.72485352 38.6472168 C-41.41222047 26.65479121 -36.70504753 18.73222254 -28.36328125 10.2734375 C-19.66211845 2.23896497 -11.6091665 0.07227497 0 0 Z " fill="#07070B" transform="translate(696.3125,703.75)"/>
<path d="M0 0 C21.27086084 -1.78841316 21.27086084 -1.78841316 27.09375 2.02734375 C29.12003655 4.92144564 30.54446167 7.78310545 32 11 C33.42513457 13.28692028 34.96174347 15.47230524 36.5 17.6875 C37.66902637 19.45677645 38.83658448 21.22702901 40 23 C42.59515903 19.80988093 45.04387597 16.5747436 47.375 13.1875 C48.57118799 11.4499094 49.78139432 9.7219428 51 8 C51.38397949 7.3105127 51.76795898 6.62102539 52.16357422 5.91064453 C54.21778959 2.56262215 55.61684914 0.34797834 59.54345703 -0.63989258 C62.52538995 -0.78753574 65.39648776 -0.69984856 68.375 -0.5 C69.39722656 -0.46390625 70.41945313 -0.4278125 71.47265625 -0.390625 C73.98566323 -0.29668081 76.49086139 -0.16553566 79 0 C78.11758326 4.31830872 75.82381977 7.18795641 73.1875 10.625 C68.7523377 16.55117283 64.46267064 22.55799802 60.3125 28.6875 C59.78358154 29.45336426 59.25466309 30.21922852 58.7097168 31.00830078 C57.9813562 32.09280518 57.9813562 32.09280518 57.23828125 33.19921875 C56.80555908 33.83690186 56.37283691 34.47458496 55.92700195 35.1315918 C54.70370065 37.24958061 54.70370065 37.24958061 55 41 C55.98276664 42.91964163 55.98276664 42.91964163 57.421875 44.765625 C58.210177 45.84227417 58.210177 45.84227417 59.0144043 46.94067383 C59.58715088 47.70275146 60.15989746 48.4648291 60.75 49.25 C61.33112549 50.03979248 61.91225098 50.82958496 62.51098633 51.64331055 C65.46246639 55.64287534 68.4572846 59.6089101 71.46484375 63.56640625 C72.0072168 64.2821582 72.54958984 64.99791016 73.10839844 65.73535156 C74.13800619 67.08969645 75.17355203 68.4395537 76.21582031 69.78417969 C76.6847168 70.3980957 77.15361328 71.01201172 77.63671875 71.64453125 C78.04623779 72.17409424 78.45575684 72.70365723 78.87768555 73.24926758 C80.25338325 75.39526024 81.11291852 77.61623851 82 80 C58.84650495 81.78854245 58.84650495 81.78854245 52.7734375 77.97265625 C50.75191648 75.07347899 49.39218152 72.24581648 48 69 C46.58021472 66.76668812 45.12182185 64.55742906 43.625 62.375 C42.97789062 61.37210938 42.33078125 60.36921875 41.6640625 59.3359375 C40.21131318 56.9102371 40.21131318 56.9102371 38 56 C37.71527832 56.72920654 37.43055664 57.45841309 37.13720703 58.2097168 C33.91505515 66.11567941 29.97378646 74.77287883 23 80 C15.23515862 82.30116776 6.8967956 81.19238814 -1 80 C1.23684194 69.97651561 10.44645709 60.52768044 16.43066406 52.31982422 C17.48376611 50.8744337 18.53249796 49.42584576 19.57617188 47.97363281 C20.47466594 46.72818939 21.38586494 45.49172471 22.31445312 44.26855469 C24.4825945 41.46498287 24.4825945 41.46498287 24.75634766 38.08178711 C23.91458203 35.76489378 22.84623153 34.0087475 21.4453125 31.98046875 C20.91768311 31.21210693 20.39005371 30.44374512 19.84643555 29.65209961 C19.27836182 28.83878174 18.71028809 28.02546387 18.125 27.1875 C17.5472583 26.35033447 16.9695166 25.51316895 16.37426758 24.65063477 C12.12441349 18.52384416 7.75884303 12.48646856 3.25244141 6.5456543 C0 2.21048745 0 2.21048745 0 0 Z " fill="#07060B" transform="translate(743,706)"/>
<path d="M0 0 C39.54653938 0 39.54653938 0 50 10 C56.22289693 16.29393457 59.85008981 22.54926549 60.09765625 31.55078125 C60.08605469 32.79214844 60.07445312 34.03351562 60.0625 35.3125 C60.05347656 36.56675781 60.04445313 37.82101562 60.03515625 39.11328125 C60.02355469 40.06589844 60.01195312 41.01851562 60 42 C59.34 42 58.68 42 58 42 C57.95875 42.969375 57.9175 43.93875 57.875 44.9375 C56.97306354 50.9585353 53.49603872 55.72996076 49.05859375 59.765625 C34.11559466 70.66328179 17.93475545 68 0 68 C0 45.56 0 23.12 0 0 Z " fill="#0C0C10" transform="translate(667,821)"/>
<path d="M0 0 C7.59 0 15.18 0 23 0 C23 8.25 23 16.5 23 25 C29.6 25 36.2 25 43 25 C43 30.61 43 36.22 43 42 C36.4 42 29.8 42 23 42 C23.09694578 47.90859012 23.19968331 53.81648049 23.31738281 59.72460938 C23.35565669 61.73431238 23.39051236 63.74408351 23.421875 65.75390625 C23.46755991 68.6434768 23.52554887 71.53257896 23.5859375 74.421875 C23.59748871 75.31992859 23.60903992 76.21798218 23.62094116 77.14324951 C23.64081085 77.98381897 23.66068054 78.82438843 23.68115234 79.69042969 C23.69447601 80.42767273 23.70779968 81.16491577 23.7215271 81.92449951 C24.0382018 84.28472377 24.83296852 85.93920737 26 88 C33.36566788 88.47950098 37.86001204 88.18041733 44 84 C44.66 84 45.32 84 46 84 C46 90.93 46 97.86 46 105 C39.94050203 108.02974898 34.20502395 108.20301486 27.5625 108.25 C26.83740234 108.270625 26.11230469 108.29125 25.36523438 108.3125 C18.91815957 108.35884016 14.25902707 106.9963495 9.3125 102.625 C8.549375 101.75875 7.78625 100.8925 7 100 C5.97592041 98.85277466 5.97592041 98.85277466 4.93115234 97.68237305 C-1.51982419 88.72195849 0.5619029 72.33025757 0.375 61.6875 C0.33672172 59.86782188 0.29766469 58.04815996 0.2578125 56.22851562 C0.16291016 51.81914555 0.07849946 47.40969133 0 43 C-4.29 42.67 -8.58 42.34 -13 42 C-13 36.72 -13 31.44 -13 26 C-8.71 26 -4.42 26 0 26 C0 17.42 0 8.84 0 0 Z " fill="#0A090E" transform="translate(602,680)"/>
<path d="M0 0 C33 0 33 0 43 6 C47.52832361 10.6415317 49.29243055 15.29867639 49.4375 21.75 C49.30857239 29.22780142 46.81278217 34.25753739 41.5 39.4375 C32.44693864 45.09566335 22.31883136 44.09131709 12 44 C12 51.26 12 58.52 12 66 C8.04 66 4.08 66 0 66 C0 44.22 0 22.44 0 0 Z " fill="#07070A" transform="translate(261,822)"/>
<path d="M0 0 C6.18264965 4.2453397 10.64464301 9.71131003 12.8125 16.9375 C14.20460676 25.8104229 11.66581559 32.52394913 6.8125 39.9375 C4.89157365 42.21989098 3.40424918 43.27878052 0.8125 44.9375 C0.25175781 45.32550781 -0.30898438 45.71351563 -0.88671875 46.11328125 C-6.93871899 49.80538203 -13.29249394 49.85849359 -20.1875 48.9375 C-28.48632896 46.61476166 -33.70708632 41.13189794 -38.1875 33.9375 C-40.73964574 26.80860128 -39.87082338 17.83870347 -37.15234375 10.8984375 C-34.46328522 5.43322542 -30.46735248 1.62826269 -25.109375 -1.140625 C-17.34730797 -3.58961941 -7.34281623 -3.75244089 0 0 Z " fill="#0B0B0F" transform="translate(505.1875,841.0625)"/>
<path d="M0 0 C1.093125 0.00257813 2.18625 0.00515625 3.3125 0.0078125 C4.405625 0.00523437 5.49875 0.00265625 6.625 0 C9.3125 0.1328125 9.3125 0.1328125 10.3125 1.1328125 C10.39998207 3.05948757 10.41947334 4.98933111 10.41015625 6.91796875 C10.40693359 8.08779297 10.40371094 9.25761719 10.40039062 10.46289062 C10.39201172 11.69458984 10.38363281 12.92628906 10.375 14.1953125 C10.37048828 15.43087891 10.36597656 16.66644531 10.36132812 17.93945312 C10.34949608 21.00395367 10.33301173 24.06835971 10.3125 27.1328125 C13.62499125 23.86342057 16.85061029 20.53089054 20.0168457 17.11962891 C21.1551836 15.89362419 22.29983311 14.67345666 23.44995117 13.45849609 C26.51124521 10.2010698 29.12159034 6.96976475 31.625 3.2578125 C33.33216906 1.20045492 34.50471006 0.27179171 37.15722656 -0.18457031 C41.90567508 -0.53912694 46.57573873 -0.27660744 51.3125 0.1328125 C49.73981503 3.99303925 47.30605158 6.27533144 44.3125 9.1328125 C43.13560455 10.2931272 41.96129781 11.45607123 40.7890625 12.62109375 C39.85030273 13.55151489 39.85030273 13.55151489 38.89257812 14.50073242 C31.76174285 21.57233448 31.76174285 21.57233448 24.8125 28.8203125 C24.2865625 29.38105469 23.760625 29.94179688 23.21875 30.51953125 C22.14755422 32.08136444 22.14755422 32.08136444 22.43261719 33.89208984 C23.7081125 37.14028516 26.02458158 39.21341384 28.484375 41.59765625 C29.26352264 42.37043663 29.26352264 42.37043663 30.05841064 43.15882874 C31.719518 44.80317939 33.39072431 46.43681624 35.0625 48.0703125 C36.17256342 49.16531818 37.28194612 50.26101439 38.390625 51.35742188 C40.44209356 53.38445176 42.49752477 55.40727387 44.55761719 57.42553711 C45.46672852 58.31893799 46.37583984 59.21233887 47.3125 60.1328125 C48.25512695 61.01138916 49.19775391 61.88996582 50.16894531 62.79516602 C52.3125 65.1328125 52.3125 65.1328125 52.3125 68.1328125 C38.2850583 69.19371145 38.2850583 69.19371145 33.9375 66.85546875 C32.17194836 65.05313478 30.75198622 63.20330638 29.3125 61.1328125 C28.19991631 59.85109495 27.07445627 58.58046042 25.9375 57.3203125 C25.36902344 56.66289063 24.80054688 56.00546875 24.21484375 55.328125 C21.99531488 52.76677957 19.75369144 50.22665872 17.5 47.6953125 C16.37658203 46.42880859 16.37658203 46.42880859 15.23046875 45.13671875 C13.46831429 43.07033016 13.46831429 43.07033016 11.3125 42.1328125 C10.9825 50.7128125 10.6525 59.2928125 10.3125 68.1328125 C6.0225 68.1328125 1.7325 68.1328125 -2.6875 68.1328125 C-4.51306117 66.30725133 -3.81522403 63.42742647 -3.81689453 60.9765625 C-3.82004669 59.65849609 -3.82319885 58.34042969 -3.82644653 56.98242188 C-3.82465675 55.53255175 -3.8226058 54.08268192 -3.8203125 52.6328125 C-3.82098557 51.15690088 -3.82195563 49.68098937 -3.82321167 48.20507812 C-3.82468848 45.10806221 -3.82253464 42.01107508 -3.81787109 38.9140625 C-3.8121738 34.93572701 -3.8154529 30.95745898 -3.82144356 26.97912598 C-3.82504963 23.93033333 -3.82391037 20.88155679 -3.82131577 17.83276367 C-3.82064662 16.36547844 -3.82147447 14.89819176 -3.82379532 13.4309082 C-3.82632257 11.38362657 -3.8217906 9.33633984 -3.81689453 7.2890625 C-3.81609894 6.12181641 -3.81530334 4.95457031 -3.81448364 3.75195312 C-3.64162304 0.18656291 -3.5722733 0.17653676 0 0 Z " fill="#101014" transform="translate(740.6875,820.8671875)"/>
<path d="M0 0 C1.19625 -0.01675781 2.3925 -0.03351562 3.625 -0.05078125 C8.97156976 0.52471758 12.22338291 3.30727549 16.1875 6.75 C16.86167969 7.32621094 17.53585937 7.90242187 18.23046875 8.49609375 C21.42133573 11.771487 22 13.69622741 22 18.3125 C18.04 18.9725 14.08 19.6325 10 20.3125 C9.4225 19.343125 8.845 18.37375 8.25 17.375 C6.37342601 14.33295645 6.37342601 14.33295645 4.25 13.4375 C3.5075 13.39625 2.765 13.355 2 13.3125 C1.06414063 13.23902344 1.06414063 13.23902344 0.109375 13.1640625 C-3.10795673 13.00915394 -5.48797428 13.10768971 -8.5 14.3125 C-10.52282682 17.00960242 -10.48122962 19.07365459 -10.53125 22.375 C-10.12992411 24.4387021 -10.12992411 24.4387021 -8.41796875 25.97265625 C-5.26164285 27.72163813 -2.36941357 28.16624558 1.1875 28.75 C10.26566121 30.41073276 16.99695714 32.25870488 22.90625 39.62890625 C25.95213602 44.3173951 25.53324137 49.95004456 25 55.3125 C22.91700073 61.71623489 17.88471273 65.60883228 12.26171875 68.9296875 C4.78048732 72.10137125 -5.53834087 71.45112063 -13.07421875 68.4140625 C-19.28494873 64.86147456 -23.75103562 59.08733058 -26 52.3125 C-26 50.9925 -26 49.6725 -26 48.3125 C-21.38 48.3125 -16.76 48.3125 -12 48.3125 C-11.0234375 50.36328125 -10.046875 52.4140625 -9.0703125 54.46484375 C-8.1315023 56.47582459 -8.1315023 56.47582459 -6 57.3125 C-3.87960174 57.48681846 -1.75206692 57.57959071 0.375 57.625 C2.08816406 57.68107422 2.08816406 57.68107422 3.8359375 57.73828125 C7.06837705 57.56613175 7.06837705 57.56613175 9.38671875 55.515625 C11.70678904 52.34729656 11.48682422 50.13754743 11 46.3125 C8.75030216 43.28603352 6.32924225 42.59730739 2.75 41.6875 C1.27660156 41.30658203 1.27660156 41.30658203 -0.2265625 40.91796875 C-3.12107581 40.22379752 -3.12107581 40.22379752 -6.625 40 C-12.68686613 38.76517542 -17.33914142 35.09792297 -21.5 30.625 C-24.60380978 25.83995993 -24.8393726 20.84436517 -24 15.3125 C-20.93616365 8.48512765 -16.45844107 4.45255171 -9.75390625 1.234375 C-6.39571335 0.11021397 -3.53784947 0.01143701 0 0 Z " fill="#0E0E12" transform="translate(631,819.6875)"/>
<path d="M0 0 C5.43325432 3.9055105 10.43079688 8.55454295 11.84765625 15.328125 C13.0950271 24.81068914 11.58171455 32.55865047 5.84765625 40.328125 C-1.1034413 46.42925585 -6.61688419 47.69455826 -15.73046875 47.6015625 C-22.35299637 47.07236509 -25.61551046 43.11521081 -29.7578125 38.40234375 C-33.44291385 32.92114259 -34.71368156 27.95691614 -34.65234375 21.390625 C-34.64734863 20.68695801 -34.64235352 19.98329102 -34.63720703 19.25830078 C-34.43745811 13.31680357 -33.14554177 9.6462289 -29.15234375 5.328125 C-28.67152344 4.75578125 -28.19070313 4.1834375 -27.6953125 3.59375 C-20.69650393 -4.16218562 -8.96657083 -5.22896533 0 0 Z " fill="#FAFAFB" transform="translate(407.15234375,723.671875)"/>
<path d="M0 0 C1.31613281 -0.01417969 2.63226563 -0.02835938 3.98828125 -0.04296875 C10.46470554 0.36052548 13.98467028 2.79137657 18.6875 7.1875 C23.9683301 14.65350118 23.28961244 23.41760149 22.6875 32.1875 C21.07568903 38.97353219 16.16317227 43.19413093 10.6875 47.1875 C6.12453962 49.94929181 0.87486171 49.72124783 -4.3125 49.1875 C-11.19144368 46.72146359 -15.39810975 41.52144565 -19.37109375 35.61328125 C-20.80260916 31.92460462 -20.68108987 28.36050114 -20.6875 24.4375 C-20.71199219 23.6640625 -20.73648437 22.890625 -20.76171875 22.09375 C-20.79563161 15.35639472 -18.99821952 10.17352149 -14.4609375 5.12890625 C-13.87570312 4.67386719 -13.29046875 4.21882812 -12.6875 3.75 C-12.09710938 3.27691406 -11.50671875 2.80382812 -10.8984375 2.31640625 C-7.37624126 -0.19077284 -4.17734751 0.00398222 0 0 Z " fill="#FAFAFA" transform="translate(497.3125,721.8125)"/>
<path d="M0 0 C4.29 0 8.58 0 13 0 C13 8.58 13 17.16 13 26 C14.65 24.68 16.3 23.36 18 22 C20.625 21.25 20.625 21.25 24 21 C24.84046875 20.91363281 25.6809375 20.82726562 26.546875 20.73828125 C32.80761439 20.3491469 36.43388553 21.16951002 41.34375 25.1015625 C45.94719512 30.3781529 46.4220455 35.2274992 46.29296875 41.8984375 C46.28872391 42.73339752 46.28447906 43.56835754 46.28010559 44.42861938 C46.26340333 47.07775035 46.22576775 49.7261016 46.1875 52.375 C46.1724422 54.17837438 46.15875571 55.98176076 46.14648438 57.78515625 C46.11352762 62.1904015 46.06180469 66.59506886 46 71 C44.02090602 71.02686553 42.04171029 71.04633375 40.0625 71.0625 C38.96035156 71.07410156 37.85820312 71.08570313 36.72265625 71.09765625 C34 71 34 71 33 70 C32.88944733 67.51608521 32.83841088 65.05525608 32.82421875 62.5703125 C32.80102 61.03774669 32.77690263 59.50519456 32.75195312 57.97265625 C32.71681801 55.5475959 32.68748915 53.12303792 32.67407227 50.69775391 C32.65861493 48.36298235 32.61842111 46.02969344 32.57421875 43.6953125 C32.57612717 42.97022491 32.57803558 42.24513733 32.58000183 41.49807739 C32.50009004 38.21625272 32.44435969 36.46094758 30.11645508 34.04614258 C27.59417187 32.79940321 25.80883429 32.56678176 23 32.5625 C21.7315625 32.53349609 21.7315625 32.53349609 20.4375 32.50390625 C17.08263939 33.18670641 16.08146307 34.28660646 14 37 C13.58207005 39.73710477 13.39527789 42.08986105 13.390625 44.828125 C13.37408875 45.57713074 13.35755249 46.32613647 13.34051514 47.09783936 C13.2920649 49.48197654 13.27067228 51.86547611 13.25 54.25 C13.2218376 55.86982369 13.19190978 57.48961772 13.16015625 59.109375 C13.08630756 63.07286414 13.03671543 67.03599998 13 71 C8.71 71 4.42 71 0 71 C0 47.57 0 24.14 0 0 Z " fill="#0B0A0E" transform="translate(411,818)"/>
<path d="M0 0 C6.93 0 13.86 0 21 0 C21 27.06 21 54.12 21 82 C14.07 82 7.14 82 0 82 C0 54.94 0 27.88 0 0 Z " fill="#07070B" transform="translate(557,705)"/>
<path d="M0 0 C4.29 0 8.58 0 13 0 C13 1.65 13 3.3 13 5 C13.845625 4.175 14.69125 3.35 15.5625 2.5 C21.31466179 -1.59694788 28.29103762 -1.00924867 35 0 C40.82300133 2.39719366 43.44742732 6.2915179 46.13737488 11.77163696 C47.51582166 15.33248833 47.51750231 18.62436971 47.42578125 22.40234375 C47.42249313 23.16551407 47.41920502 23.92868439 47.41581726 24.71498108 C47.4054766 26.31080802 47.385665 27.9065999 47.35668945 29.50219727 C47.31217431 31.95544904 47.2951791 34.40772033 47.28320312 36.86132812 C47.26979534 38.41668096 47.2548769 39.97202167 47.23828125 41.52734375 C47.23089432 42.2626683 47.22350739 42.99799286 47.21589661 43.75559998 C47.11840022 48.88159978 47.11840022 48.88159978 46 50 C43.98035801 50.07244053 41.95832876 50.08377188 39.9375 50.0625 C38.28041016 50.04896484 38.28041016 50.04896484 36.58984375 50.03515625 C35.73519531 50.02355469 34.88054688 50.01195312 34 50 C33.98541748 49.05680908 33.97083496 48.11361816 33.95581055 47.1418457 C33.89460394 43.62841339 33.82042492 40.11574554 33.73754883 36.6027832 C33.70438084 35.08498379 33.67632368 33.56706344 33.65356445 32.04907227 C33.61986722 29.86161981 33.56754796 27.67526736 33.51171875 25.48828125 C33.48553467 24.17384033 33.45935059 22.85939941 33.43237305 21.50512695 C32.94475796 17.55216831 31.83784124 14.83784124 29 12 C26.54442328 11.68368041 26.54442328 11.68368041 23.6875 11.625 C22.72199219 11.57601562 21.75648438 11.52703125 20.76171875 11.4765625 C17.85306737 11.76728116 17.85306737 11.76728116 15.86547852 14.05102539 C13.58541902 17.65537543 13.39792761 20.57007162 13.390625 24.70703125 C13.37408875 25.43242599 13.35755249 26.15782074 13.34051514 26.90519714 C13.29217523 29.20771873 13.27069715 31.50958066 13.25 33.8125 C13.22182832 35.37959023 13.1918992 36.94664992 13.16015625 38.51367188 C13.08642109 42.34239355 13.03676179 46.17075206 13 50 C8.71 50 4.42 50 0 50 C0 33.5 0 17 0 0 Z " fill="#0E0E11" transform="translate(526,839)"/>
<path d="M0 0 C4.62 0 9.24 0 14 0 C15.7154487 4.35743741 17.42425649 8.71739779 19.12695312 13.07983398 C19.70716309 14.56362037 20.28918376 16.04670004 20.87304688 17.52905273 C21.71180241 19.65946325 22.54402056 21.79232763 23.375 23.92578125 C23.63748535 24.58838455 23.8999707 25.25098785 24.17041016 25.93367004 C25.27483362 28.78572234 26 30.91109914 26 34 C26.66 34 27.32 34 28 34 C27.94972656 32.89205078 27.94972656 32.89205078 27.8984375 31.76171875 C28.00210329 28.94280676 28.48313592 27.36080643 29.625 24.8125 C32.09777765 18.98064448 34.03501032 13.0045442 35.98095703 6.98168945 C37.89887043 1.10112957 37.89887043 1.10112957 39 0 C41.18639453 -0.07258946 43.37500389 -0.08373783 45.5625 -0.0625 C47.35880859 -0.04896484 47.35880859 -0.04896484 49.19140625 -0.03515625 C50.11824219 -0.02355469 51.04507813 -0.01195312 52 0 C51.60192894 5.8383756 49.64867957 10.47871485 47.32421875 15.8203125 C46.05409648 18.87010462 45.00128634 21.91560008 44 25.0625 C42.74387422 28.95699439 41.31749366 32.61662551 39.5625 36.3125 C37.23614067 41.25066151 35.48818112 46.30481077 33.81591797 51.48974609 C32.10686564 56.7694241 30.12813161 61.87672019 28 67 C23.05 67 18.1 67 13 67 C14.28745266 63.13764203 15.55655386 59.67404474 17.1875 56 C19.21495583 50.9047833 19.2628641 48.03201155 17.1328125 42.91796875 C16.44906511 41.36231094 15.74789225 39.81421834 15.03125 38.2734375 C13.84580074 35.66006071 12.89079357 32.98056922 11.91015625 30.28515625 C10.74525557 27.36040562 9.4040744 24.53540354 8.0625 21.6875 C4.76759891 14.63870663 1.88915056 7.55660226 0 0 Z " fill="#0B0A0E" transform="translate(314,839)"/>
<path d="M0 0 C21.61126005 0 21.61126005 0 28.5703125 6.45703125 C33.70787335 12.02027571 34.47663507 17.96882076 34.30859375 25.25390625 C33.52931853 32.18846931 30.06781461 36.4720963 24.78125 40.7734375 C16.24674481 46.65026783 13.52600485 44 0 44 C0 29.48 0 14.96 0 0 Z " fill="#FAFAFA" transform="translate(680,833)"/>
<path d="M0 0 C4.29 0 8.58 0 13 0 C13 3.96 13 7.92 13 12 C17.29 12 21.58 12 26 12 C26 15.63 26 19.26 26 23 C21.71 23 17.42 23 13 23 C13.11362874 26.93813307 13.24038724 30.87507674 13.375 34.8125 C13.4059375 35.93205078 13.436875 37.05160156 13.46875 38.20507812 C13.50742187 39.27822266 13.54609375 40.35136719 13.5859375 41.45703125 C13.63306885 42.9416687 13.63306885 42.9416687 13.68115234 44.45629883 C13.83773433 47.24075094 13.83773433 47.24075094 16 50 C20.38175919 50.40571844 23.18494748 50.10920305 27 48 C27.02685938 50.14576637 27.04633088 52.29162645 27.0625 54.4375 C27.07410156 55.63246094 27.08570313 56.82742188 27.09765625 58.05859375 C27 61 27 61 26 62 C10.64943538 62.88481807 10.64943538 62.88481807 5 60 C0.56464397 55.5662252 -0.34573557 51.01125193 -0.48828125 44.875 C-0.45529825 42.2495533 -0.39603629 39.62432466 -0.3125 37 C-0.28737508 35.63936409 -0.26456932 34.27868327 -0.24414062 32.91796875 C-0.18550324 29.61081998 -0.10347166 26.30599912 0 23 C-2.64 23 -5.28 23 -8 23 C-8 19.37 -8 15.74 -8 12 C-5.36 12 -2.72 12 0 12 C0 8.04 0 4.08 0 0 Z " fill="#0D0D10" transform="translate(377,827)"/>
<path d="M0 0 C4.51111101 0.63763392 6.03332274 1.95568236 8.95703125 5.41796875 C11.55762991 9.67349383 11.64279247 14.56620812 10.95703125 19.41796875 C8.59386837 24.2351854 5.7538207 27.01957402 0.95703125 29.41796875 C-2.6112796 30.18158727 -5.58077799 30.18854012 -8.8515625 28.46484375 C-11.51722567 26.44482082 -12.92303833 24.80345938 -13.91796875 21.60546875 C-13.97984375 20.52265625 -13.97984375 20.52265625 -14.04296875 19.41796875 C-14.70296875 19.41796875 -15.36296875 19.41796875 -16.04296875 19.41796875 C-16.51044857 12.84728011 -16.5191332 8.66147568 -12.04296875 3.41796875 C-11.62273437 2.88042969 -11.2025 2.34289062 -10.76953125 1.7890625 C-7.59259537 -0.73379834 -3.89193048 -0.09882774 0 0 Z " fill="#F6F6F7" transform="translate(494.04296875,849.58203125)"/>
<path d="M0 0 C4.88247428 2.10959738 8.48127402 5.4287397 10.6328125 10.33203125 C11.1278125 13.79703125 11.1278125 13.79703125 11.6328125 17.33203125 C-1.2371875 17.33203125 -14.1071875 17.33203125 -27.3671875 17.33203125 C-26.268183 9.63899977 -25.41072945 6.64861978 -19.4296875 2.01953125 C-13.27960788 -1.85682187 -6.90972806 -1.94977475 0 0 Z " fill="#F6F6F7" transform="translate(704.3671875,721.66796875)"/>
<path d="M0 0 C0.33 0 0.66 0 1 0 C1.02496476 5.47688475 1.04298372 10.95373541 1.05493164 16.43066406 C1.05991956 18.28874286 1.06671228 20.14681782 1.07543945 22.00488281 C1.13463331 34.94396256 1.03013546 47.6258116 -1.4375 60.375 C-2.83077683 67.89390524 -3.97896671 75.42032933 -5 83 C-5.66 83 -6.32 83 -7 83 C-7 84.98 -7 86.96 -7 89 C-7.99 89.495 -7.99 89.495 -9 90 C-9 87.03 -9 84.06 -9 81 C-10.32 80.67 -11.64 80.34 -13 80 C-13.97375479 74.35222219 -13.91755034 71.46692331 -12 66 C-11.10181799 62.61963565 -10.30160455 59.21690122 -9.5 55.8125 C-9.27860352 54.87865479 -9.05720703 53.94480957 -8.82910156 52.98266602 C-7.51211928 47.36592251 -6.29449697 41.75348657 -5.359375 36.05859375 C-5 34 -5 34 -4.4765625 32.078125 C-3.8809748 29.48097208 -3.7681004 26.97348597 -3.625 24.3125 C-3.05380331 16.09101327 -1.53934598 8.08398674 0 0 Z " fill="#8764E5" transform="translate(715,367)"/>
<path d="M0 0 C2.35125 -0.061875 4.7025 -0.12375 7.125 -0.1875 C7.85348145 -0.21481201 8.58196289 -0.24212402 9.33251953 -0.27026367 C14.84191808 -0.33974754 18.32339059 1.30481404 22.875 4.1875 C24.79983549 7.28862385 24.59101342 10.52615444 24 14 C22.3320209 17.3359582 21.15708625 19.37953346 17.84375 21.15625 C14.25592841 22.22076849 10.88697903 22.21632521 7.1875 22.125 C4.815625 22.08375 2.44375 22.0425 0 22 C0 14.74 0 7.48 0 0 Z " fill="#F2F2F3" transform="translate(273,833)"/>
<path d="M0 0 C2.93423195 1.79646854 4.47205355 2.9441071 6 6 C6.53118252 10.91996928 6.75105553 14.77327597 4.125 19.0625 C0.2429877 22.6019818 -3.18077198 22.46827298 -8.2890625 22.39453125 C-11 22 -11 22 -14.1875 19.625 C-16.90319048 15.45235149 -16.88356194 10.77601049 -16 6 C-11.95766104 -0.60248696 -7.2842127 -0.85898735 0 0 Z " fill="#08070B" transform="translate(572,673)"/>
<path d="M0 0 C-1.1875 1.5 -1.1875 1.5 -3 3 C-5.6875 3.1875 -5.6875 3.1875 -8 3 C-8.25910156 3.61359375 -8.51820313 4.2271875 -8.78515625 4.859375 C-10.14039444 7.24738312 -11.07134448 7.93164308 -13.4375 9.25 C-25.05089098 16.1382319 -35.62266899 24.65231372 -44.3125 35.01171875 C-45.42099249 36.31778976 -46.56673345 37.59329909 -47.75 38.83203125 C-56.94942509 48.548924 -64.54158551 60.30588055 -71 72 C-71.66 72 -72.32 72 -73 72 C-72.52976523 66.82741753 -69.85901372 63.41969613 -66.9375 59.3125 C-66.19040771 58.24684814 -66.19040771 58.24684814 -65.42822266 57.15966797 C-57.09211738 45.3647091 -47.69283119 34.65421728 -37.5625 24.375 C-37.04204102 23.84148926 -36.52158203 23.30797852 -35.98535156 22.75830078 C-34.6956768 21.4656505 -33.35187953 20.22744756 -32 19 C-31.34 19 -30.68 19 -30 19 C-30 18.34 -30 17.68 -30 17 C-27.7462179 14.90309272 -25.17949968 13.17821005 -22.6875 11.375 C-21.65206055 10.6015625 -21.65206055 10.6015625 -20.59570312 9.8125 C-19.59506836 9.08160156 -19.59506836 9.08160156 -18.57421875 8.3359375 C-17.96151123 7.88782715 -17.34880371 7.4397168 -16.7175293 6.97802734 C-15 6 -15 6 -12 6 C-12 5.34 -12 4.68 -12 4 C-10.56988027 3.13353333 -9.13059381 2.28218171 -7.6875 1.4375 C-6.48673828 0.72400391 -6.48673828 0.72400391 -5.26171875 -0.00390625 C-3 -1 -3 -1 0 0 Z " fill="#8F71D8" transform="translate(458,128)"/>
<path d="M0 0 C0.33 0 0.66 0 1 0 C1.02505615 1.10287354 1.0501123 2.20574707 1.07592773 3.34204102 C1.17144096 7.50764929 1.27128537 11.67314521 1.37231445 15.83862305 C1.41512815 17.62765846 1.45682983 19.41672091 1.49731445 21.20581055 C1.74613015 32.16291646 2.15148522 43.07133785 3 54 C2.34 53.67 1.68 53.34 1 53 C-2.67096784 41.67093658 -3.06637453 29.98081958 -3.1875 18.1875 C-3.20063232 17.38683105 -3.21376465 16.58616211 -3.22729492 15.76123047 C-3.23500895 10.06590558 -2.58381226 5.16762452 0 0 Z " fill="#8C69E9" transform="translate(529,508)"/>
<path d="M0 0 C0.66 0 1.32 0 2 0 C3.2190942 5.63831067 2.82196067 10.33760425 2 16 C1.67 16.33 1.34 16.66 1 17 C0.60006314 19.68862664 0.24865457 22.36352217 -0.0625 25.0625 C-0.15337891 25.82111328 -0.24425781 26.57972656 -0.33789062 27.36132812 C-0.5624374 29.2404301 -0.78170978 31.12016095 -1 33 C-1.66 33 -2.32 33 -3 33 C-3 57.09 -3 81.18 -3 106 C-3.33 106 -3.66 106 -4 106 C-5.04644619 99.96668197 -5.17668788 94.06873949 -5.203125 87.953125 C-5.21337456 86.34347618 -5.21337456 86.34347618 -5.22383118 84.7013092 C-5.24093161 81.21750765 -5.24716555 77.73384114 -5.25 74.25 C-5.25200409 73.06836273 -5.25400818 71.88672546 -5.256073 70.66928101 C-5.26237895 55.49548851 -4.95432326 40.42689495 -3.5625 25.3125 C-3.4614093 24.20956604 -3.4614093 24.20956604 -3.35827637 23.08435059 C-2.26893661 11.53787323 -2.26893661 11.53787323 -1 9 C-0.77532169 7.46331135 -0.59203195 5.92031946 -0.4375 4.375 C-0.35371094 3.55773437 -0.26992188 2.74046875 -0.18359375 1.8984375 C-0.12300781 1.27195312 -0.06242187 0.64546875 0 0 Z " fill="#967ADA" transform="translate(352,295)"/>
<path d="M0 0 C0.66 0 1.32 0 2 0 C1.49674855 5.27365584 -1.25771166 9.17704241 -4 13.5625 C-4.74213745 14.76132812 -4.74213745 14.76132812 -5.49926758 15.984375 C-9.65531132 22.61589108 -14.13782331 28.86353537 -19 35 C-19.63164063 35.82371094 -20.26328125 36.64742187 -20.9140625 37.49609375 C-24.85667655 42.56632786 -29.05247479 47.37853358 -33.375 52.125 C-33.89940674 52.70628662 -34.42381348 53.28757324 -34.96411133 53.88647461 C-36.26713192 55.29788543 -37.62910724 56.65441603 -39 58 C-39.66 58 -40.32 58 -41 58 C-41.33 58.99 -41.66 59.98 -42 61 C-44.06640625 62.82421875 -44.06640625 62.82421875 -46.5625 64.6875 C-47.80193359 65.62142578 -47.80193359 65.62142578 -49.06640625 66.57421875 C-49.70449219 67.04472656 -50.34257813 67.51523437 -51 68 C-51.66 67.67 -52.32 67.34 -53 67 C-51.90945313 66.01773438 -51.90945313 66.01773438 -50.796875 65.015625 C-45.18816259 59.93552174 -39.67373359 54.77910735 -34.3125 49.4375 C-33.7959082 48.92541992 -33.27931641 48.41333984 -32.74707031 47.88574219 C-30.03464689 45.19849831 -30.03464689 45.19849831 -28 42 C-27.34 42 -26.68 42 -26 42 C-25.731875 41.443125 -25.46375 40.88625 -25.1875 40.3125 C-23.89100504 37.78774666 -22.57523677 35.36285516 -21 33 C-20.34 33 -19.68 33 -19 33 C-18.65582031 31.97326172 -18.65582031 31.97326172 -18.3046875 30.92578125 C-16.69659687 27.31961394 -14.47458726 24.33107984 -12.125 21.1875 C-8.53747728 16.28235945 -5.48649672 11.56975266 -3 6 C-2 4 -1 2 0 0 Z " fill="#9173D5" transform="translate(684,517)"/>
<path d="M0 0 C0.33 0 0.66 0 1 0 C1.02496476 5.47688475 1.04298372 10.95373541 1.05493164 16.43066406 C1.05991956 18.28874286 1.06671228 20.14681782 1.07543945 22.00488281 C1.12139202 32.0495734 1.14210679 42.00302463 0 52 C-0.99 52 -1.98 52 -3 52 C-3.07559343 47.32677536 -3.12926247 42.65392585 -3.16479492 37.98022461 C-3.17964641 36.39878117 -3.19993305 34.81737705 -3.22631836 33.23608398 C-3.41183291 21.81057023 -2.36919848 11.18179769 0 0 Z " fill="#A288EC" transform="translate(715,367)"/>
<path d="M0 0 C0.99 0 1.98 0 3 0 C3 1.32 3 2.64 3 4 C3.66 4 4.32 4 5 4 C5.33 3.01 5.66 2.02 6 1 C5.23567047 5.41421775 3.92718072 9.61783275 2.5625 13.875 C0.96278275 18.89725772 -0.57553406 23.92492599 -2 29 C-2.33 29 -2.66 29 -3 29 C-4.02641414 22.84151517 -4.08286249 17.17231622 -3 11 C-2.67 10.67 -2.34 10.34 -2 10 C-1.79300437 8.50503158 -1.63320741 7.0033408 -1.5 5.5 C-1.11111111 1.11111111 -1.11111111 1.11111111 0 0 Z " fill="#8E70E5" transform="translate(357,272)"/>
<path d="M0 0 C0.33 0 0.66 0 1 0 C0.85879286 1.93784265 0.71187127 3.87526955 0.5625 5.8125 C0.48128906 6.89144531 0.40007813 7.97039062 0.31640625 9.08203125 C0 12 0 12 -1 15 C-1.0845387 17.4410776 -1.11605786 19.85259213 -1.09765625 22.29296875 C-1.0962413 22.99899734 -1.09482635 23.70502594 -1.09336853 24.43244934 C-1.08777764 26.68417626 -1.07522688 28.93580321 -1.0625 31.1875 C-1.05748382 32.71549335 -1.05292112 34.24348827 -1.04882812 35.77148438 C-1.0378112 39.51436135 -1.02055287 43.25716373 -1 47 C-6.93564166 38.09653751 -5.25357353 20.05916901 -3.36328125 9.828125 C-2.50155196 6.38120783 -1.58949215 3.1789843 0 0 Z " fill="#764BE6" transform="translate(574,442)"/>
<path d="M0 0 C0.33 0 0.66 0 1 0 C1.05534912 1.10923828 1.11069824 2.21847656 1.16772461 3.36132812 C1.37534436 7.5063396 1.5868831 11.65114365 1.79956055 15.79589844 C1.89078682 17.58425629 1.98097325 19.37266752 2.07006836 21.16113281 C2.19887332 23.74298863 2.33151018 26.32462456 2.46484375 28.90625 C2.50343002 29.69616333 2.5420163 30.48607666 2.58177185 31.29992676 C2.84161384 36.24232637 3.35877262 41.09275572 4 46 C4.06027831 47.83246055 4.08796215 49.66672511 4.0625 51.5 C4.05347656 52.3559375 4.04445312 53.211875 4.03515625 54.09375 C4.02355469 54.7228125 4.01195312 55.351875 4 56 C3.34 55.67 2.68 55.34 2 55 C1.50472751 52.36354949 1.15099209 49.82663596 0.8828125 47.1640625 C0.79830841 46.36110748 0.71380432 45.55815247 0.6267395 44.73086548 C-0.25132045 35.61287297 -0.2212983 26.52515555 -0.125 17.375 C-0.11492817 15.67448457 -0.1058099 13.97396321 -0.09765625 12.2734375 C-0.07602587 8.18214017 -0.04173977 4.09113952 0 0 Z " fill="#410BB0" transform="translate(250,347)"/>
<path d="M0 0 C5.97808349 0.35329265 9.2935167 3.0463956 13.8125 6.625 C14.51375 7.16608398 15.215 7.70716797 15.9375 8.26464844 C17.96632773 9.83314603 19.9837462 11.41539344 22 13 C23.83328158 14.41673364 25.66660257 15.83341629 27.5 17.25 C28.66787537 18.16512622 29.83513208 19.08104864 31 20 C30.67 20.99 30.34 21.98 30 23 C28.66102417 22.04956626 27.32894573 21.08940853 26 20.125 C25.2575 19.59132812 24.515 19.05765625 23.75 18.5078125 C23.1725 18.01023438 22.595 17.51265625 22 17 C22 16.34 22 15.68 22 15 C21.34 14.79375 20.68 14.5875 20 14.375 C16.65652628 12.84257455 14.0954347 10.90666397 11.203125 8.66015625 C8.13329945 6.34690118 4.9185808 4.27868122 1.6875 2.19921875 C1.130625 1.80347656 0.57375 1.40773437 0 1 C0 0.67 0 0.34 0 0 Z " fill="#4714B5" transform="translate(687,127)"/>
<path d="M0 0 C0.66 0 1.32 0 2 0 C2 1.65 2 3.3 2 5 C2.66 5 3.32 5 4 5 C4.33 3.68 4.66 2.36 5 1 C6.12647116 4.37941348 5.80736269 5.60907672 5 9 C4.835 9.86625 4.67 10.7325 4.5 11.625 C4 14 4 14 3 17 C2.34 17 1.68 17 1 17 C1 15.68 1 14.36 1 13 C0.01 13 -0.98 13 -2 13 C-2.19294408 8.17639811 -1.75747614 4.50353262 0 0 Z " fill="#8969DF" transform="translate(359,259)"/>
<path d="M0 0 C0.92553743 3.13850064 1.11664647 5.93680778 1.09765625 9.203125 C1.09443359 10.1828125 1.09121094 11.1625 1.08789062 12.171875 C1.07951172 13.18765625 1.07113281 14.2034375 1.0625 15.25 C1.05798828 16.28125 1.05347656 17.3125 1.04882812 18.375 C1.03706088 20.91672573 1.02062011 23.45833319 1 26 C0.67 26 0.34 26 0 26 C-0.33 37.55 -0.66 49.1 -1 61 C-1.33 61 -1.66 61 -2 61 C-2.02560879 54.68693927 -2.0429741 48.37389222 -2.05493164 42.06079102 C-2.059923 39.91853332 -2.06671843 37.77627896 -2.07543945 35.6340332 C-2.19930282 4.39860565 -2.19930282 4.39860565 0 0 Z " fill="#7148C6" transform="translate(251,322)"/>
<path d="M0 0 C4.77606085 4.77606085 3.18289199 15.22908674 3.1875 21.625 C3.19974609 22.52734375 3.21199219 23.4296875 3.22460938 24.359375 C3.23616242 29.64296921 2.73229468 34.0016794 1 39 C0.67 39 0.34 39 0 39 C0 26.13 0 13.26 0 0 Z " fill="#7349E4" transform="translate(492,231)"/>
<path d="M0 0 C0.33 0 0.66 0 1 0 C1.02496476 5.47688475 1.04298372 10.95373541 1.05493164 16.43066406 C1.05991956 18.28874286 1.06671228 20.14681782 1.07543945 22.00488281 C1.12139202 32.0495734 1.14210679 42.00302463 0 52 C-0.33 52 -0.66 52 -1 52 C-1 44.08 -1 36.16 -1 28 C-1.33 28 -1.66 28 -2 28 C-1.93941406 27.40316406 -1.87882813 26.80632812 -1.81640625 26.19140625 C-0.9744327 17.47374161 -0.48175403 8.74332311 0 0 Z " fill="#7D5CD4" transform="translate(715,367)"/>
<path d="M0 0 C0.66 0.33 1.32 0.66 2 1 C0.92027262 2.4194169 -0.16395863 3.8354083 -1.25 5.25 C-2.15492188 6.43335938 -2.15492188 6.43335938 -3.078125 7.640625 C-5 10 -5 10 -7.140625 12.12890625 C-9.14731054 13.97996158 -9.14731054 13.97996158 -10.5 16.6875 C-12 19 -12 19 -14.1875 19.8125 C-14.785625 19.874375 -15.38375 19.93625 -16 20 C-13.32383855 11.43628337 -6.76605166 5.49527038 0 0 Z " fill="#161517" transform="translate(674,709)"/>
<path d="M0 0 C0.66 0 1.32 0 2 0 C1.43619895 3.55714975 0.55448614 6.15076886 -1.328125 9.21484375 C-1.79863281 9.98376953 -2.26914062 10.75269531 -2.75390625 11.54492188 C-3.24761719 12.33447266 -3.74132812 13.12402344 -4.25 13.9375 C-4.72824219 14.72318359 -5.20648437 15.50886719 -5.69921875 16.31835938 C-8.50623101 20.86358925 -11.47150611 24.9885918 -15 29 C-15.33 28.34 -15.66 27.68 -16 27 C-15.34773437 26.05640625 -14.69546875 25.1128125 -14.0234375 24.140625 C-8.68710866 16.33218515 -3.94767939 8.61749525 0 0 Z " fill="#967BDC" transform="translate(684,517)"/>
<path d="M0 0 C0.66 0 1.32 0 2 0 C3.2190942 5.63831067 2.82196067 10.33760425 2 16 C1.67 16.33 1.34 16.66 1 17 C0.60006314 19.68862664 0.24865457 22.36352217 -0.0625 25.0625 C-0.15337891 25.82111328 -0.24425781 26.57972656 -0.33789062 27.36132812 C-0.5624374 29.2404301 -0.78170978 31.12016095 -1 33 C-1.33 33 -1.66 33 -2 33 C-1.85949111 29.1872846 -1.71161266 25.37488784 -1.5625 21.5625 C-1.50352539 19.95858398 -1.50352539 19.95858398 -1.44335938 18.32226562 C-1.19873496 12.16902064 -0.76466 6.11085425 0 0 Z " fill="#9F89E6" transform="translate(352,295)"/>
<path d="M0 0 C0.61488281 0.42152344 1.22976563 0.84304688 1.86328125 1.27734375 C2.67152344 1.82519531 3.47976563 2.37304688 4.3125 2.9375 C5.11300781 3.48277344 5.91351563 4.02804687 6.73828125 4.58984375 C9.0258143 6.13837326 9.0258143 6.13837326 12 7 C12 7.66 12 8.32 12 9 C13.32 9.33 14.64 9.66 16 10 C12.14383859 11.25984964 9.97594134 10.42978676 6.23828125 8.90234375 C3.85185643 7.9402772 1.44380311 7.11683835 -1 6.3125 C-1.763125 6.06113281 -2.52625 5.80976562 -3.3125 5.55078125 C-3.869375 5.36902344 -4.42625 5.18726563 -5 5 C-5 4.67 -5 4.34 -5 4 C-3.35 4 -1.7 4 0 4 C0 2.68 0 1.36 0 0 Z " fill="#683CC5" transform="translate(435,619)"/>
<path d="M0 0 C0.66 0 1.32 0 2 0 C1.01 2.97 0.02 5.94 -1 9 C-1.66 9 -2.32 9 -3 9 C-3.12246094 9.70511719 -3.24492187 10.41023437 -3.37109375 11.13671875 C-4.03405201 14.15503183 -4.98175575 16.91889442 -6.0625 19.8125 C-6.42472656 20.78832031 -6.78695313 21.76414063 -7.16015625 22.76953125 C-7.43730469 23.50558594 -7.71445312 24.24164063 -8 25 C-8.66 25 -9.32 25 -10 25 C-9.55212589 18.72976253 -8.07805086 14.43721484 -5 9 C-4.54625 8.17371094 -4.0925 7.34742188 -3.625 6.49609375 C-2.42840586 4.32386746 -1.21963269 2.15934969 0 0 Z " fill="#9277DD" transform="translate(378,211)"/>
<path d="M0 0 C0.66 0.33 1.32 0.66 2 1 C-0.24668973 4.40877063 -2.53286274 7.74786452 -5 11 C-5.99 12.485 -5.99 12.485 -7 14 C-7.33 14 -7.66 14 -8 14 C-8.33 16.64 -8.66 19.28 -9 22 C-9.33 22 -9.66 22 -10 22 C-10.79664496 14.9334642 -9.86279018 10.6979732 -5.703125 4.91015625 C-3.95729967 2.95210904 -2.15114814 1.49177447 0 0 Z " fill="#272629" transform="translate(617,823)"/>
<path d="M0 0 C3.03120575 3.85973532 5.62729278 7.9834934 8.25 12.125 C8.72179687 12.85332031 9.19359375 13.58164062 9.6796875 14.33203125 C10.12054688 15.02941406 10.56140625 15.72679687 11.015625 16.4453125 C11.42071289 17.07969238 11.82580078 17.71407227 12.24316406 18.36767578 C12.49291992 18.90634277 12.74267578 19.44500977 13 20 C12.67 20.66 12.34 21.32 12 22 C7.9918197 18.32583472 5.47408385 14.85653496 3 10 C3 9.34 3 8.68 3 8 C2.34 8 1.68 8 1 8 C-1.125 3.375 -1.125 3.375 0 0 Z " fill="#592ABC" transform="translate(400,569)"/>
<path d="M0 0 C0.99 0 1.98 0 3 0 C2.21824485 4.84688192 0.60155722 9.3766367 -1 14 C-1.99 14 -2.98 14 -4 14 C-3.67 15.98 -3.34 17.96 -3 20 C-3.99 20.33 -4.98 20.66 -6 21 C-5.56954199 15.18881687 -4.22500545 10.55635467 -1.9375 5.19921875 C-0.91932329 2.89317167 -0.91932329 2.89317167 0 0 Z " fill="#5E30BE" transform="translate(268,257)"/>
<path d="M0 0 C6.84310009 1.10654384 13.95947232 2.44538179 20 6 C20.66 7.32 21.32 8.64 22 10 C18.7 9.01 15.4 8.02 12 7 C12 6.34 12 5.68 12 5 C10.948125 4.896875 9.89625 4.79375 8.8125 4.6875 C5.12154134 4.02191729 3.00087519 3.18245468 0 1 C0 0.67 0 0.34 0 0 Z " fill="#602FC1" transform="translate(406,612)"/>
<path d="M0 0 C0 3.93169105 -1.39419615 5.16427228 -4 8 C-4.66 8 -5.32 8 -6 8 C-6 8.99 -6 9.98 -6 11 C-6.66 11 -7.32 11 -8 11 C-8 12.32 -8 13.64 -8 15 C-9.98 15.99 -11.96 16.98 -14 18 C-12.57292963 13.96153796 -10.63122108 10.77865104 -8.125 7.3125 C-7.10792969 5.88357422 -7.10792969 5.88357422 -6.0703125 4.42578125 C-4.10036623 2.11759893 -2.79389776 1.07120295 0 0 Z " fill="#1B1B1D" transform="translate(760,761)"/>
<path d="M0 0 C0.99 0.66 1.98 1.32 3 2 C2.6803125 2.51433594 2.360625 3.02867187 2.03125 3.55859375 C0.2513122 7.77246164 0.53359048 12.26220671 0.34375 16.78515625 C0 20 0 20 -2 23 C-2.66 23 -3.32 23 -4 23 C-3.32545897 15.1753241 -1.73123042 7.65443386 0 0 Z " fill="#5626BA" transform="translate(256,296)"/>
<path d="M0 0 C0.66 0 1.32 0 2 0 C3.62238683 2.23699577 5.0228441 4.57697539 6.46484375 6.93359375 C7.90728113 9.28739757 7.90728113 9.28739757 11 10 C12.0625 12.25 12.0625 12.25 13 15 C13.37125 15.928125 13.7425 16.85625 14.125 17.8125 C14.41375 18.534375 14.7025 19.25625 15 20 C10.4878019 16.51449046 7.27628006 13.04477941 4.125 8.3125 C3.7228125 7.73177734 3.320625 7.15105469 2.90625 6.55273438 C0 2.27738361 0 2.27738361 0 0 Z " fill="#4511B3" transform="translate(299,518)"/>
<path d="M0 0 C0.66 0.33 1.32 0.66 2 1 C-11.71428571 13 -11.71428571 13 -15 13 C-15 13.66 -15 14.32 -15 15 C-16.65 15.66 -18.3 16.32 -20 17 C-20 16.34 -20 15.68 -20 15 C-13.90028578 9.35451982 -6.85731949 4.66881327 0 0 Z " fill="#4C16B5" transform="translate(443,132)"/>
<path d="M0 0 C0.33 0.99 0.66 1.98 1 3 C-2.11983124 5.17418522 -5.24668348 7.33804562 -8.375 9.5 C-9.26445313 10.12003906 -10.15390625 10.74007812 -11.0703125 11.37890625 C-12.34648438 12.25869141 -12.34648438 12.25869141 -13.6484375 13.15625 C-14.43395996 13.70087891 -15.21948242 14.24550781 -16.02880859 14.80664062 C-18 16 -18 16 -20 16 C-18.72257935 12.16773804 -17.35518017 11.73246681 -13.9375 9.6875 C-9.07224388 6.70229063 -4.49377906 3.51519107 0 0 Z " fill="#4914B5" transform="translate(703,584)"/>
<path d="M0 0 C0.33 0 0.66 0 1 0 C1.28994872 9.13338455 0.1741788 17.96301675 -1 27 C-1.33 27 -1.66 27 -2 27 C-2.3690205 7.99544419 -2.3690205 7.99544419 0 0 Z " fill="#410BB1" transform="translate(253,317)"/>
<path d="M0 0 C0.33 0.99 0.66 1.98 1 3 C-0.31580231 5.27814982 -1.64774745 7.32063589 -3.1875 9.4375 C-3.58775391 10.01048828 -3.98800781 10.58347656 -4.40039062 11.17382812 C-6.69612713 14.40720742 -9.10482806 17.29118396 -12 20 C-11.65696016 14.51136253 -8.25983342 11.13328161 -5 7 C-3.31149003 4.68157957 -1.65787379 2.34052771 0 0 Z " fill="#4813B5" transform="translate(772,510)"/>
<path d="M0 0 C2.46800047 1.15173355 4.04783565 2.04783565 6 4 C6.125 6.625 6.125 6.625 6 9 C3.69 8.67 1.38 8.34 -1 8 C-1.33 7.01 -1.66 6.02 -2 5 C-0.68 5 0.64 5 2 5 C1.34 3.35 0.68 1.7 0 0 Z " fill="#4B16B6" transform="translate(429,614)"/>
<path d="M0 0 C0.66 0 1.32 0 2 0 C1.57045059 6.25107435 0.98598493 12.04204521 -1 18 C-1.66 18 -2.32 18 -3 18 C-2.67 14.04 -2.34 10.08 -2 6 C-1.34 6 -0.68 6 0 6 C0 4.02 0 2.04 0 0 Z " fill="#967EE2" transform="translate(704,459)"/>
<path d="M0 0 C3.34249629 0.59687434 5.46436342 1.73603877 8 4 C8 4.66 8 5.32 8 6 C2.72 6 -2.56 6 -8 6 C-7 4 -7 4 -5.15234375 3.3671875 C-4.42144531 3.20476562 -3.69054687 3.04234375 -2.9375 2.875 C-1.83728516 2.62363281 -1.83728516 2.62363281 -0.71484375 2.3671875 C-0.14894531 2.24601562 0.41695313 2.12484375 1 2 C0.67 1.34 0.34 0.68 0 0 Z " fill="#4813B6" transform="translate(501,106)"/>
<path d="M0 0 C2.97 0.99 5.94 1.98 9 3 C9 3.66 9 4.32 9 5 C11.31 5.33 13.62 5.66 16 6 C15.360625 6.12375 14.72125 6.2475 14.0625 6.375 C13.381875 6.58125 12.70125 6.7875 12 7 C11.67 7.66 11.34 8.32 11 9 C9.34793553 8.07352464 7.7035003 7.13343426 6.0625 6.1875 C5.14597656 5.66542969 4.22945312 5.14335938 3.28515625 4.60546875 C1 3 1 3 0 0 Z " fill="#4C1AB9" transform="translate(612,90)"/>
<path d="M0 0 C0.66 0 1.32 0 2 0 C2 0.66 2 1.32 2 2 C-0.23639227 3.80211266 -2.46782864 5.47564497 -4.8125 7.125 C-5.77639648 7.82689453 -5.77639648 7.82689453 -6.75976562 8.54296875 C-11.62279063 12 -11.62279063 12 -15 12 C-15 11.34 -15 10.68 -15 10 C-12.89843714 8.57922511 -10.8129229 7.27398042 -8.625 6 C-4.04511537 3.36645878 -4.04511537 3.36645878 0 0 Z " fill="#9476D8" transform="translate(629,585)"/>
<path d="M0 0 C3.01708345 1.50854172 3.64457302 3.89269057 5.125 6.875 C5.66382813 7.94492187 6.20265625 9.01484375 6.7578125 10.1171875 C8 13 8 13 8 16 C7.34 16 6.68 16 6 16 C2.71232131 10.64993984 0.40316925 6.31631828 0 0 Z " fill="#5A2ABC" transform="translate(391,553)"/>
<path d="M0 0 C0.33 0 0.66 0 1 0 C0.59060025 6.76215448 -0.56953809 12.67162748 -3 19 C-3.66 19 -4.32 19 -5 19 C-4.48378772 12.16018724 -2.51409031 6.36123316 0 0 Z " fill="#4310B3" transform="translate(804,439)"/>
<path d="M0 0 C0 2.31 0 4.62 0 7 C-0.61875 7.268125 -1.2375 7.53625 -1.875 7.8125 C-4.2995233 8.95556848 -4.2995233 8.95556848 -6 12 C-6.29554656 4.31578947 -6.29554656 4.31578947 -4 1 C-2 0 -2 0 0 0 Z " fill="#794FE5" transform="translate(711,421)"/>
<path d="M0 0 C0.33 0.66 0.66 1.32 1 2 C0.22729492 3.69580078 0.22729492 3.69580078 -1.01953125 5.6953125 C-1.46490234 6.41074219 -1.91027344 7.12617188 -2.36914062 7.86328125 C-2.84544922 8.60964844 -3.32175781 9.35601562 -3.8125 10.125 C-4.27720703 10.87910156 -4.74191406 11.63320312 -5.22070312 12.41015625 C-7.83320895 16.555682 -7.83320895 16.555682 -9 18 C-9.66 18 -10.32 18 -11 18 C-9.66629344 13.11951338 -7.47529792 9.54881455 -4.375 5.625 C-3.74464844 4.80708984 -3.74464844 4.80708984 -3.1015625 3.97265625 C-2.07499307 2.64278222 -1.03850813 1.32057207 0 0 Z " fill="#774EE5" transform="translate(387,222)"/>
<path d="M0 0 C0.33 0.99 0.66 1.98 1 3 C0.46890625 3.45890625 -0.0621875 3.9178125 -0.609375 4.390625 C-4.18324699 7.49493717 -7.71854059 10.58181312 -11 14 C-11.66 13.67 -12.32 13.34 -13 13 C-11.58791833 11.39179588 -10.17013964 9.78859292 -8.75 8.1875 C-7.96109375 7.29417969 -7.1721875 6.40085938 -6.359375 5.48046875 C-4.34120555 3.35871775 -2.40083295 1.65745577 0 0 Z " fill="#764CE5" transform="translate(406,201)"/>
<path d="M0 0 C0 0.66 0 1.32 0 2 C-5.625 5 -5.625 5 -9 5 C-9 5.66 -9 6.32 -9 7 C-11.31 7.33 -13.62 7.66 -16 8 C-16 7.34 -16 6.68 -16 6 C-15.01 6 -14.02 6 -13 6 C-13 5.34 -13 4.68 -13 4 C-12.37351562 3.79503906 -11.74703125 3.59007812 -11.1015625 3.37890625 C-10.28429687 3.10949219 -9.46703125 2.84007812 -8.625 2.5625 C-7.81289063 2.29566406 -7.00078125 2.02882813 -6.1640625 1.75390625 C-1.12953368 0 -1.12953368 0 0 0 Z " fill="#9579E0" transform="translate(613,597)"/>
<path d="M0 0 C1.59981235 4.79943705 -0.9625031 8.55712482 -3 13 C-3.94967425 14.69584687 -4.92185661 16.38278492 -6 18 C-6.71484375 16.453125 -6.71484375 16.453125 -7 14 C-5.94608774 11.46142115 -4.86034426 9.15504473 -3.5625 6.75 C-3.22412109 6.1003125 -2.88574219 5.450625 -2.53710938 4.78125 C-1.70213113 3.18185506 -0.85246886 1.59014141 0 0 Z " fill="#4811B2" transform="translate(374,214)"/>
<path d="M0 0 C4.99005032 0.46781722 9.15195521 2.88919744 13 6 C13.33 6.99 13.66 7.98 14 9 C10.40241608 7.67726488 7.36262865 6.0805802 4.1875 3.9375 C3.39730469 3.41027344 2.60710937 2.88304687 1.79296875 2.33984375 C1.20128906 1.89769531 0.60960937 1.45554687 0 1 C0 0.67 0 0.34 0 0 Z " fill="#5B2BBD" transform="translate(377,595)"/>
<path d="M0 0 C0.66 0.33 1.32 0.66 2 1 C1.67 1.99 1.34 2.98 1 4 C-1.14453125 5.01953125 -1.14453125 5.01953125 -3.8125 5.8125 C-4.68519531 6.08707031 -5.55789063 6.36164063 -6.45703125 6.64453125 C-9.38786651 7.0542179 -10.54816255 6.57169068 -13 5 C-12.39671875 4.80664062 -11.7934375 4.61328125 -11.171875 4.4140625 C-10.37265625 4.15367188 -9.5734375 3.89328125 -8.75 3.625 C-7.96109375 3.36976562 -7.1721875 3.11453125 -6.359375 2.8515625 C-3.98216847 2.05806266 -3.98216847 2.05806266 -1.828125 0.8359375 C-1.22484375 0.56007813 -0.6215625 0.28421875 0 0 Z " fill="#5E2FBF" transform="translate(425,103)"/>
<path d="M0 0 C0 4.13781054 -1.71509607 5.20919996 -4.5 8.1875 C-5.3353125 9.08855469 -6.170625 9.98960937 -7.03125 10.91796875 C-8.00578125 11.94857422 -8.00578125 11.94857422 -9 13 C-9.99 12.67 -10.98 12.34 -12 12 C-8.39424999 7.41086363 -4.52615993 3.67832017 0 0 Z " fill="#040305" transform="translate(762,839)"/>
<path d="M0 0 C2 1 2 1 2.62109375 2.703125 C3.06955765 5.42164845 3.09529082 7.99557077 3.0625 10.75 C3.05347656 11.73484375 3.04445313 12.7196875 3.03515625 13.734375 C3.02355469 14.48203125 3.01195312 15.2296875 3 16 C-0.38370684 12.61629316 -0.05529986 8.7667907 -0.0625 4.1875 C-0.04655989 2.79160221 -0.02736707 1.39572052 0 0 Z " fill="#440FB4" transform="translate(710,274)"/>
<path d="M0 0 C0.33 0 0.66 0 1 0 C0.54775239 5.91492272 -0.1582605 11.35199888 -2 17 C-2.33 17 -2.66 17 -3 17 C-3.33 14.36 -3.66 11.72 -4 9 C-3.34 8.67 -2.68 8.34 -2 8 C-1.31527335 6.11235097 -1.31527335 6.11235097 -0.875 3.9375 C-0.70742188 3.20402344 -0.53984375 2.47054688 -0.3671875 1.71484375 C-0.24601562 1.14894531 -0.12484375 0.58304687 0 0 Z " fill="#7D54E6" transform="translate(357,284)"/>
<path d="M0 0 C1.37351794 3.12163168 0.89111525 4.33811581 -0.1875 7.6875 C-2 11 -2 11 -4.1875 11.9375 C-4.785625 11.958125 -5.38375 11.97875 -6 12 C-4.68139111 7.38486888 -2.78644563 3.90102388 0 0 Z " fill="#5B2DBD" transform="translate(289,216)"/>
<path d="M0 0 C5.96564796 0.50771472 10.63809899 2.38592128 16 5 C15.67 5.66 15.34 6.32 15 7 C9.76727367 5.36041242 4.84803364 3.61047965 0 1 C0 0.67 0 0.34 0 0 Z " fill="#440EB3" transform="translate(643,104)"/>
<path d="M0 0 C1.12864571 2.82503443 0.99492545 4.01633704 0.07421875 6.98046875 C-0.38339844 8.03878906 -0.84101562 9.09710938 -1.3125 10.1875 C-1.76238281 11.25355469 -2.21226562 12.31960938 -2.67578125 13.41796875 C-4 16 -4 16 -6 17 C-5.34496718 12.94180817 -4.05440879 9.46028718 -2.4375 5.6875 C-1.75494141 4.08455078 -1.75494141 4.08455078 -1.05859375 2.44921875 C-0.53458984 1.23685547 -0.53458984 1.23685547 0 0 Z " fill="#410CB1" transform="translate(797,460)"/>
<path d="M0 0 C4.95 0 9.9 0 15 0 C14.67 0.66 14.34 1.32 14 2 C11.6015625 2.44921875 11.6015625 2.44921875 8.625 2.6875 C7.64789062 2.77386719 6.67078125 2.86023438 5.6640625 2.94921875 C3 3 3 3 0 2 C0 1.34 0 0.68 0 0 Z " fill="#4612B3" transform="translate(559,614)"/>
<path d="M0 0 C1.10844919 3.32534757 0.84454356 5.62182575 0 9 C-0.66 9 -1.32 9 -2 9 C-2 10.32 -2 11.64 -2 13 C-2.66 13 -3.32 13 -4 13 C-3.55966813 7.80408388 -3.11696661 4.33664919 0 0 Z " fill="#4811B3" transform="translate(364,237)"/>
<path d="M0 0 C0.33 0.99 0.66 1.98 1 3 C-0.1796875 5.15625 -0.1796875 5.15625 -1.875 7.5 C-3.73229619 10.09157608 -4.98483238 11.95449714 -6 15 C-6.66 15 -7.32 15 -8 15 C-7.4520917 10.7170548 -5.97567196 8.14864359 -3.4375 4.6875 C-2.79683594 3.80449219 -2.15617187 2.92148438 -1.49609375 2.01171875 C-0.75552734 1.01591797 -0.75552734 1.01591797 0 0 Z " fill="#4912B3" transform="translate(389,188)"/>
<path d="M0 0 C3.55007718 3.9050849 4.81819916 6.97734643 6 12 C5.01 12 4.02 12 3 12 C2.30314502 10.3789897 1.61777139 8.75303934 0.9375 7.125 C0.55464844 6.22007812 0.17179688 5.31515625 -0.22265625 4.3828125 C-1 2 -1 2 0 0 Z " fill="#8965E9" transform="translate(524,130)"/>
<path d="M0 0 C0.66 0 1.32 0 2 0 C0.23570801 4.97209562 -2.3939166 9.43438061 -5 14 C-5.9970971 11.37511186 -6.13116719 10.31725398 -5.0390625 7.67578125 C-4.57242188 6.89589844 -4.10578125 6.11601563 -3.625 5.3125 C-3.16351562 4.52488281 -2.70203125 3.73726562 -2.2265625 2.92578125 C-1 1 -1 1 0 0 Z " fill="#4B16B3" transform="translate(685,521)"/>
<path d="M0 0 C0.33 0 0.66 0 1 0 C1 5.94 1 11.88 1 18 C-2 15 -2 15 -2.1875 11.3125 C-2.125625 10.219375 -2.06375 9.12625 -2 8 C-1.67 8 -1.34 8 -1 8 C-0.67 5.36 -0.34 2.72 0 0 Z " fill="#5F30BF" transform="translate(817,332)"/>
<path d="M0 0 C4.05092246 4.05092246 4.125 10.55868904 4.125 16.0625 C4.08375 17.361875 4.0425 18.66125 4 20 C3.67 20 3.34 20 3 20 C3 17.36 3 14.72 3 12 C2.01 11.67 1.02 11.34 0 11 C0 7.37 0 3.74 0 0 Z " fill="#7D59CC" transform="translate(812,303)"/>
<path d="M0 0 C-5.40744018 0.77249145 -10.53862186 1.09752461 -16 1 C-15.67 0.34 -15.34 -0.32 -15 -1 C-8.7876443 -2.93499604 -5.59770349 -3.73180233 0 0 Z " fill="#764FC8" transform="translate(452,100)"/>
<path d="M0 0 C0.66 0 1.32 0 2 0 C1.343621 4.48525648 0.29925791 8.66914029 -1 13 C-1.66 13 -2.32 13 -3 13 C-2.67 10.03 -2.34 7.06 -2 4 C-1.34 4 -0.68 4 0 4 C0 2.68 0 1.36 0 0 Z " fill="#997FE3" transform="translate(366,237)"/>
<path d="M0 0 C0.99 0.33 1.98 0.66 3 1 C3 1.66 3 2.32 3 3 C3.61875 3.28875 4.2375 3.5775 4.875 3.875 C7 5 7 5 9 7 C8.67 7.99 8.34 8.98 8 10 C6.70756532 8.8758824 5.41607925 7.75067408 4.125 6.625 C3.40570313 5.99851563 2.68640625 5.37203125 1.9453125 4.7265625 C0.5923402 3.52573166 -0.7208345 2.2791655 -2 1 C-1.34 0.67 -0.68 0.34 0 0 Z " fill="#8560E9" transform="translate(468,191)"/>
<path d="M0 0 C0.66 0.33 1.32 0.66 2 1 C-1.43361902 4.63559661 -4.7973607 7.36113346 -9 10 C-7.61811547 6.78956118 -6.07578097 4.95063635 -3.375 2.75 C-2.74335937 2.22921875 -2.11171875 1.7084375 -1.4609375 1.171875 C-0.73777344 0.59179688 -0.73777344 0.59179688 0 0 Z " fill="#4B15B3" transform="translate(643,576)"/>
<path d="M0 0 C0.99 0.33 1.98 0.66 3 1 C2.34 1.66 1.68 2.32 1 3 C0.34 2.67 -0.32 2.34 -1 2 C-1.33 2.99 -1.66 3.98 -2 5 C-3.84765625 5.73046875 -3.84765625 5.73046875 -6.0625 6.1875 C-6.79597656 6.34605469 -7.52945312 6.50460938 -8.28515625 6.66796875 C-9.13400391 6.83232422 -9.13400391 6.83232422 -10 7 C-7.19527484 3.70032335 -3.83081791 1.91540896 0 0 Z " fill="#6133C0" transform="translate(386,121)"/>
<path d="M0 0 C4.61513112 1.31860889 8.09897612 3.21355437 12 6 C9 7 9 7 6.73828125 6.00390625 C5.93777344 5.52824219 5.13726563 5.05257812 4.3125 4.5625 C3.50425781 4.08941406 2.69601562 3.61632812 1.86328125 3.12890625 C1.24839844 2.75636719 0.63351562 2.38382812 0 2 C0 1.34 0 0.68 0 0 Z " fill="#450FB4" transform="translate(672,117)"/>
<path d="M0 0 C-0.33 0.66 -0.66 1.32 -1 2 C-3.50390625 2.4140625 -3.50390625 2.4140625 -6.5625 2.625 C-7.57441406 2.69976562 -8.58632813 2.77453125 -9.62890625 2.8515625 C-10.41136719 2.90054688 -11.19382812 2.94953125 -12 3 C-12 2.34 -12 1.68 -12 1 C-7.53763531 -0.80619523 -4.68965706 -1.11658501 0 0 Z " fill="#967BE3" transform="translate(500,113)"/>
<path d="M0 0 C6.4 0.49230769 6.4 0.49230769 9.4375 3.0625 C10.2109375 4.0215625 10.2109375 4.0215625 11 5 C6.1948447 5.56531239 3.75696103 3.88324916 0 1 C0 0.67 0 0.34 0 0 Z " fill="#5A2BBD" transform="translate(660,111)"/>
<path d="M0 0 C2.31459868 1.81817001 2.95377187 2.75615543 3.51171875 5.69921875 C3.56972656 6.68535156 3.62773438 7.67148438 3.6875 8.6875 C3.75324219 9.68136719 3.81898438 10.67523438 3.88671875 11.69921875 C3.92410156 12.45847656 3.96148438 13.21773437 4 14 C1.59960958 9.32024725 0 5.32695729 0 0 Z " fill="#410BB0" transform="translate(699,230)"/>
<path d="M0 0 C0.66 0.33 1.32 0.66 2 1 C-1.06093224 4.93548431 -3.49115974 7.68116787 -8 10 C-6.5682479 4.98886765 -4.01554307 3.05530451 0 0 Z " fill="#1F1E20" transform="translate(617,823)"/>
<path d="M0 0 C0 3 0 3 -2.1875 5.5 C-4.69738253 7.73100669 -7.05966711 9.40381929 -10 11 C-8.55218207 7.55571735 -6.72305391 5.63869038 -3.875 3.25 C-3.15054688 2.63640625 -2.42609375 2.0228125 -1.6796875 1.390625 C-0.84824219 0.70226562 -0.84824219 0.70226562 0 0 Z " fill="#4911B3" transform="translate(656,564)"/>
<path d="M0 0 C0.33 0 0.66 0 1 0 C1.33 4.62 1.66 9.24 2 14 C1.01 14.33 0.02 14.66 -1 15 C-1.09038099 9.84828377 -0.84681133 5.08086796 0 0 Z " fill="#9D81EE" transform="translate(529,495)"/>
<path d="M0 0 C0.66 0 1.32 0 2 0 C1.49287967 3.71888239 0.88391785 6.73454239 -1 10 C-1.66 10 -2.32 10 -3 10 C-2.49287967 6.28111761 -1.88391785 3.26545761 0 0 Z " fill="#4811B2" transform="translate(695,499)"/>
<path d="M0 0 C1.5625 1.0625 1.5625 1.0625 3 3 C2.6875 6.6875 2.6875 6.6875 2 10 C1.34 10 0.68 10 0 10 C-0.19412181 8.52168779 -0.38012131 7.04230684 -0.5625 5.5625 C-0.66691406 4.73878906 -0.77132813 3.91507812 -0.87890625 3.06640625 C-0.91886719 2.38449219 -0.95882813 1.70257813 -1 1 C-0.67 0.67 -0.34 0.34 0 0 Z " fill="#754BE4" transform="translate(360,266)"/>
<path d="M0 0 C0 0.99 0 1.98 0 3 C-1.53125 4.38671875 -1.53125 4.38671875 -3.5 5.6875 C-4.47453125 6.34298828 -4.47453125 6.34298828 -5.46875 7.01171875 C-5.9740625 7.33785156 -6.479375 7.66398438 -7 8 C-7.33 7.01 -7.66 6.02 -8 5 C-4.04 2.525 -4.04 2.525 0 0 Z " fill="#4816B5" transform="translate(346,151)"/>
<path d="M0 0 C3.375 4.5 3.375 4.5 3.6875 8.75 C3.75324219 9.54921875 3.81898438 10.3484375 3.88671875 11.171875 C3.92410156 11.77515625 3.96148437 12.3784375 4 13 C3.67 12.01 3.34 11.02 3 10 C2.34 10 1.68 10 1 10 C0.67 6.7 0.34 3.4 0 0 Z " fill="#420CB3" transform="translate(365,490)"/>
<path d="M0 0 C0.99 0.66 1.98 1.32 3 2 C2.67 2.556875 2.34 3.11375 2 3.6875 C0.81630715 5.98188597 0.81630715 5.98188597 1.0625 8.625 C1.041875 9.40875 1.02125 10.1925 1 11 C0.01 11.66 -0.98 12.32 -2 13 C-1.85769192 11.58297487 -1.71099254 10.1663904 -1.5625 8.75 C-1.48128906 7.96109375 -1.40007812 7.1721875 -1.31640625 6.359375 C-1.02365007 4.17635361 -0.57935581 2.1226818 0 0 Z " fill="#5F32BD" transform="translate(256,296)"/>
<path d="M0 0 C3.81300782 3.2870757 5.22972246 6.39727838 7 11 C6.34 11.66 5.68 12.32 5 13 C4.15930585 11.39967863 3.32768495 9.79458829 2.5 8.1875 C1.80390625 6.84751953 1.80390625 6.84751953 1.09375 5.48046875 C0 3 0 3 0 0 Z " fill="#440EB3" transform="translate(662,145)"/>
<path d="M0 0 C0.33 0.99 0.66 1.98 1 3 C-1.64 4.98 -4.28 6.96 -7 9 C-5.64978174 4.58110387 -3.73884332 2.65654657 0 0 Z " fill="#0F0E10" transform="translate(749,776)"/>
<path d="M0 0 C0.66 0 1.32 0 2 0 C1.25 6.625 1.25 6.625 -1 10 C-1.66 10 -2.32 10 -3 10 C-2.21302675 6.58978257 -1.12880057 3.31114834 0 0 Z " fill="#9981E2" transform="translate(689,506)"/>
<path d="M0 0 C1.8871875 0.0309375 1.8871875 0.0309375 3.8125 0.0625 C3.4825 1.7125 3.1525 3.3625 2.8125 5.0625 C2.1525 3.7425 1.4925 2.4225 0.8125 1.0625 C-2.1575 1.7225 -5.1275 2.3825 -8.1875 3.0625 C-6.45706736 -0.39836529 -3.47359009 -0.0569441 0 0 Z " fill="#9474EC" transform="translate(578.1875,424.9375)"/>
<path d="M0 0 C0.75 1.75 0.75 1.75 1 4 C-0.75 6.25 -0.75 6.25 -3 8 C-3.99 8 -4.98 8 -6 8 C-4.55746343 4.63408134 -2.66735273 2.48952921 0 0 Z " fill="#5728BC" transform="translate(324,170)"/>
<path d="M0 0 C0.99 0.33 1.98 0.66 3 1 C-0.465 3.97 -0.465 3.97 -4 7 C-4.66 6.67 -5.32 6.34 -6 6 C-4 4 -2 2 0 0 Z " fill="#4B14B4" transform="translate(628,588)"/>
<path d="M0 0 C0.66 0 1.32 0 2 0 C3.60355101 3.50776784 4.22036864 6.14354879 4 10 C3.34 10 2.68 10 2 10 C0.68373308 6.38026598 0 3.90432869 0 0 Z " fill="#400BB2" transform="translate(803,276)"/>
<path d="M0 0 C3.7952131 1.49097658 5.61042731 3.75700849 8 7 C5 7 5 7 2.3125 4.625 C0 2 0 2 0 0 Z " fill="#410DB3" transform="translate(740,170)"/>
<path d="M0 0 C0 0.66 0 1.32 0 2 C-0.66 2 -1.32 2 -2 2 C-2 2.66 -2 3.32 -2 4 C-3.98 4 -5.96 4 -8 4 C-4.5 0 -4.5 0 0 0 Z " fill="#9173E3" transform="translate(470,121)"/>
<path d="M0 0 C0.99 0.99 1.98 1.98 3 3 C2.01 4.485 2.01 4.485 1 6 C1.99 6.33 2.98 6.66 4 7 C0.65626525 6.44271087 -2.03312999 5.64826111 -5 4 C-3.35 4 -1.7 4 0 4 C0 2.68 0 1.36 0 0 Z " fill="#754AC9" transform="translate(435,619)"/>
<path d="M0 0 C3.10551666 3.10551666 3.81323934 4.89198233 5 9 C4.01 9 3.02 9 2 9 C1.34 6.03 0.68 3.06 0 0 Z " fill="#4610B5" transform="translate(273,471)"/>
<path d="M0 0 C0.33 0 0.66 0 1 0 C1.17835515 4.54805635 0.99785435 7.8794254 -1 12 C-1.33 12 -1.66 12 -2 12 C-1.85904936 10.3745692 -1.71207913 8.74965949 -1.5625 7.125 C-1.48128906 6.22007812 -1.40007813 5.31515625 -1.31640625 4.3828125 C-1 2 -1 2 0 0 Z " fill="#440CB2" transform="translate(709,452)"/>
<path d="M0 0 C-1 3 -1 3 -3.8125 4.75 C-7.13982105 6.05483179 -7.79584277 6.02866653 -11 5 C-9.54462432 4.16151196 -8.08559627 3.32936066 -6.625 2.5 C-5.81289063 2.0359375 -5.00078125 1.571875 -4.1640625 1.09375 C-2 0 -2 0 0 0 Z " fill="#774DE4" transform="translate(503,285)"/>
<path d="M0 0 C-0.33 0.66 -0.66 1.32 -1 2 C-3.28515625 2.4140625 -3.28515625 2.4140625 -6.0625 2.625 C-6.98160156 2.69976563 -7.90070312 2.77453125 -8.84765625 2.8515625 C-9.55792969 2.90054688 -10.26820313 2.94953125 -11 3 C-6.86621405 0.2441427 -4.94796454 -0.10756445 0 0 Z " fill="#4711B1" transform="translate(587,611)"/>
<path d="M0 0 C0.33 0.66 0.66 1.32 1 2 C0.06421005 4.35981813 -0.93347808 6.69631264 -2 9 C-2.33 9 -2.66 9 -3 9 C-3.1875 5.625 -3.1875 5.625 -3 2 C-2.01 1.34 -1.02 0.68 0 0 Z " fill="#9C7EEE" transform="translate(530,244)"/>
<path d="M0 0 C0.66 0 1.32 0 2 0 C1.01 2.97 0.02 5.94 -1 9 C-1.66 9 -2.32 9 -3 9 C-2.5020163 5.26512223 -2.12508244 3.18762365 0 0 Z " fill="#9A80E1" transform="translate(378,211)"/>
<path d="M0 0 C3.36591866 1.44253657 5.51047079 3.33264727 8 6 C7.67 6.66 7.34 7.32 7 8 C6.01 7.34 5.02 6.68 4 6 C4 5.34 4 4.68 4 4 C2.68 3.34 1.36 2.68 0 2 C0 1.34 0 0.68 0 0 Z " fill="#400BB2" transform="translate(726,156)"/>
<path d="M0 0 C2 3 2 3 3 6 C0.525 7.485 0.525 7.485 -2 9 C-1.34 6.03 -0.68 3.06 0 0 Z " fill="#252527" transform="translate(352,840)"/>
<path d="M0 0 C-0.33 0.66 -0.66 1.32 -1 2 C-2.65 2 -4.3 2 -6 2 C-6.33 2.66 -6.66 3.32 -7 4 C-7.66 3.01 -8.32 2.02 -9 1 C-6.04335481 -0.4783226 -3.25770263 -0.06032783 0 0 Z " fill="#A087E3" transform="translate(565,612)"/>
<path d="M0 0 C3.05882701 1.52941351 3.68951234 3.94219546 5 7 C4.67 7.66 4.34 8.32 4 9 C3.34 9 2.68 9 2 9 C1.34 6.03 0.68 3.06 0 0 Z " fill="#6337C0" transform="translate(391,553)"/>
<path d="M0 0 C0.66 0.33 1.32 0.66 2 1 C0 4 0 4 -2.1640625 4.51171875 C-2.97617187 4.56972656 -3.78828125 4.62773438 -4.625 4.6875 C-5.85089844 4.78611328 -5.85089844 4.78611328 -7.1015625 4.88671875 C-7.72804688 4.92410156 -8.35453125 4.96148438 -9 5 C-6.06626269 3.04417512 -3.21783702 1.43775696 0 0 Z " fill="#9473EB" transform="translate(645,526)"/>
<path d="M0 0 C2.02350324 3.03525486 2.32124018 4.19426202 2.625 7.6875 C2.69976563 8.49574219 2.77453125 9.30398438 2.8515625 10.13671875 C2.90054688 10.75160156 2.94953125 11.36648438 3 12 C2.01 11.34 1.02 10.68 0 10 C-0.29296875 7.6171875 -0.29296875 7.6171875 -0.1875 4.875 C-0.16042969 3.96492188 -0.13335938 3.05484375 -0.10546875 2.1171875 C-0.07066406 1.41851562 -0.03585937 0.71984375 0 0 Z " fill="#754DC8" transform="translate(809,289)"/>
<path d="M0 0 C0.66 0 1.32 0 2 0 C0.44499019 3.81684226 -2.03595495 6.19195732 -5 9 C-3.7580393 5.56072421 -2.44259716 2.74792181 0 0 Z " fill="#4A12B4" transform="translate(403,168)"/>
<path d="M0 0 C0.66 0 1.32 0 2 0 C0.71480435 2.86697492 -0.57129254 4.97607712 -3 7 C-3.66 7 -4.32 7 -5 7 C-5 6.34 -5 5.68 -5 5 C-4.34 5 -3.68 5 -3 5 C-2.5359375 4.0409375 -2.5359375 4.0409375 -2.0625 3.0625 C-1 1 -1 1 0 0 Z " fill="#4C15B5" transform="translate(415,155)"/>
<path d="M0 0 C-2.31 1.65 -4.62 3.3 -7 5 C-7.66 4.67 -8.32 4.34 -9 4 C-6.56225426 0.2214941 -6.56225426 0.2214941 -3.9375 -0.8125 C-2 -1 -2 -1 0 0 Z " fill="#4814B6" transform="translate(380,128)"/>
<path d="M0 0 C-0.99 0.33 -1.98 0.66 -3 1 C-3 1.66 -3 2.32 -3 3 C-6.3 2.67 -9.6 2.34 -13 2 C-13 1.67 -13 1.34 -13 1 C-8.62426048 0.40667939 -4.42471556 -0.13827236 0 0 Z " fill="#582AB9" transform="translate(579,612)"/>
<path d="M0 0 C1.9375 0.6875 1.9375 0.6875 4 2 C4.75 4.625 4.75 4.625 5 7 C4.01 6.67 3.02 6.34 2 6 C0.8125 2.9375 0.8125 2.9375 0 0 Z " fill="#5D31BF" transform="translate(383,539)"/>
<path d="M0 0 C2.6855594 2.6855594 3.06049974 5.37621328 4 9 C3.01 9 2.02 9 1 9 C0.29925156 5.846632 0 3.27275026 0 0 Z " fill="#9677ED" transform="translate(577,497)"/>
<path d="M0 0 C1.96301592 3.50538557 2.95902388 7.13351728 4 11 C3.34 10.67 2.68 10.34 2 10 C2 9.01 2 8.02 2 7 C1.01 6.67 0.02 6.34 -1 6 C-0.67 4.02 -0.34 2.04 0 0 Z " fill="#7047C7" transform="translate(369,498)"/>
<path d="M0 0 C4.42857143 5.14285714 4.42857143 5.14285714 5 9 C4.34 9 3.68 9 3 9 C0 3.375 0 3.375 0 0 Z " fill="#4413B2" transform="translate(284,493)"/>
<path d="M0 0 C1 3 1 3 -0.3125 5.6875 C-0.869375 6.450625 -1.42625 7.21375 -2 8 C-2.66 8 -3.32 8 -4 8 C-2.25 2.25 -2.25 2.25 0 0 Z " fill="#4814B4" transform="translate(781,495)"/>
<path d="M0 0 C0.66 0 1.32 0 2 0 C2 2.64 2 5.28 2 8 C1.01 7.67 0.02 7.34 -1 7 C-0.67 4.69 -0.34 2.38 0 0 Z " fill="#6533C3" transform="translate(815,323)"/>
<path d="M0 0 C2 1 2 1 3.1875 3.8125 C3.96421451 6.85961076 4.10096399 8.13749363 3 11 C3 10.01 3 9.02 3 8 C2.01 7.67 1.02 7.34 0 7 C0 4.69 0 2.38 0 0 Z " fill="#6B41C4" transform="translate(802,268)"/>
<path d="M0 0 C0.66 0 1.32 0 2 0 C3.32 2.31 4.64 4.62 6 7 C5.01 7 4.02 7 3 7 C0 2.77777778 0 2.77777778 0 0 Z " fill="#4712B3" transform="translate(642,115)"/>
<path d="M0 0 C2.97 0.99 5.94 1.98 9 3 C7.02 3.99 7.02 3.99 5 5 C2.25 3.75 2.25 3.75 0 2 C0 1.34 0 0.68 0 0 Z " fill="#8762D7" transform="translate(612,90)"/>
</svg>
